<svg xmlns="http://www.w3.org/2000/svg" viewBox="0 0 355.68 174.1"><title>icon-logo</title><g id="a1f8db00-15b7-4f64-b1bf-8f2b721e7304" data-name="Layer 1"><g id="ad953068-422f-4736-a1cd-7e1e6fbb394c" data-name="aacd5d15-9c67-49f2-baad-73490939a108"><g id="ec275e0a-57b4-4b49-a2e3-26fab4047c52" data-name="aeed5c98-b5b6-498c-b048-e4d8ac881397"><g id="bde54e5e-cacf-473a-92ad-fd73d2baaa98" data-name="eaaeef8b-818b-44b2-9594-8966149f9c10"><path d="M240.25-2.36a2.55,2.55,0,0,1-2.55-2.55V-21.28a2.55,2.55,0,0,1,2.55-2.55,2.55,2.55,0,0,1,2.55,2.55V-4.91a2.55,2.55,0,0,1-2.55,2.55Z" transform="translate(-68.49 100.16)" fill="#5ff9f5"/><path d="M229.69,14.28a2.56,2.56,0,0,1-2.55-2.56V-37.92a2.55,2.55,0,0,1,2.55-2.55,2.55,2.55,0,0,1,2.55,2.55V11.73a2.55,2.55,0,0,1-2.55,2.55Z" transform="translate(-68.49 100.16)" fill="#5ff9f5"/><path d="M219.12,8.72a2.55,2.55,0,0,1-2.55-2.55V-32.37a2.55,2.55,0,0,1,2.55-2.55,2.55,2.55,0,0,1,2.55,2.55V6.17a2.55,2.55,0,0,1-2.55,2.55Z" transform="translate(-68.49 100.16)" fill="#5ff9f5"/><path d="M208.56,25.85A2.55,2.55,0,0,1,206,23.3V-49.49A2.55,2.55,0,0,1,208.56-52a2.55,2.55,0,0,1,2.55,2.55V23.3a2.55,2.55,0,0,1-2.55,2.55Z" transform="translate(-68.49 100.16)" fill="#5ff9f5"/><path d="M198,36.17a2.55,2.55,0,0,1-2.55-2.55V-59.82A2.55,2.55,0,0,1,198-62.37a2.55,2.55,0,0,1,2.55,2.55V33.62A2.55,2.55,0,0,1,198,36.17Z" transform="translate(-68.49 100.16)" fill="#5ff9f5"/><path d="M187.43,58.5A2.55,2.55,0,0,1,184.88,56h0V-82.14a2.55,2.55,0,0,1,2.55-2.55A2.55,2.55,0,0,1,190-82.14V55.94a2.55,2.55,0,0,1-2.54,2.56Z" transform="translate(-68.49 100.16)" fill="#5ff9f5"/><path d="M176.86,51.52A2.55,2.55,0,0,1,174.31,49V-75.17a2.55,2.55,0,0,1,2.55-2.55,2.55,2.55,0,0,1,2.55,2.55V48.94a2.55,2.55,0,0,1-2.52,2.58Z" transform="translate(-68.49 100.16)" fill="#5ff9f5"/><path d="M166.3,65.94a2.55,2.55,0,0,1-2.55-2.55v-153a2.55,2.55,0,0,1,2.55-2.55,2.55,2.55,0,0,1,2.55,2.55V63.43A2.55,2.55,0,0,1,166.3,65.94Z" transform="translate(-68.49 100.16)" fill="#5ff9f5"/><path d="M71-2.36a2.55,2.55,0,0,1-2.55-2.55h0V-21.28A2.55,2.55,0,0,1,71-23.83a2.55,2.55,0,0,1,2.55,2.55V-4.91A2.55,2.55,0,0,1,71-2.36Z" transform="translate(-68.49 100.16)" fill="#5ff9f5"/><path d="M81.61,14.28a2.56,2.56,0,0,1-2.55-2.56V-37.92a2.55,2.55,0,0,1,2.55-2.55,2.55,2.55,0,0,1,2.55,2.55V11.73a2.55,2.55,0,0,1-2.55,2.55Z" transform="translate(-68.49 100.16)" fill="#5ff9f5"/><path d="M92.18,8.72a2.55,2.55,0,0,1-2.55-2.55h0V-32.37a2.55,2.55,0,0,1,2.55-2.55,2.55,2.55,0,0,1,2.55,2.55V6.17A2.55,2.55,0,0,1,92.18,8.72Z" transform="translate(-68.49 100.16)" fill="#5ff9f5"/><path d="M102.74,25.85a2.55,2.55,0,0,1-2.55-2.55h0V-49.49A2.55,2.55,0,0,1,102.74-52a2.55,2.55,0,0,1,2.55,2.55V23.3a2.55,2.55,0,0,1-2.55,2.55Z" transform="translate(-68.49 100.16)" fill="#5ff9f5"/><path d="M113.3,36.17a2.55,2.55,0,0,1-2.55-2.55h0V-59.82a2.55,2.55,0,0,1,2.55-2.55,2.55,2.55,0,0,1,2.55,2.55V33.62A2.55,2.55,0,0,1,113.3,36.17Z" transform="translate(-68.49 100.16)" fill="#5ff9f5"/><path d="M123.87,58.5A2.55,2.55,0,0,1,121.32,56V-82.14a2.55,2.55,0,0,1,2.55-2.55,2.55,2.55,0,0,1,2.55,2.55V55.94a2.55,2.55,0,0,1-2.54,2.56Z" transform="translate(-68.49 100.16)" fill="#5ff9f5"/><path d="M134.43,51.52A2.55,2.55,0,0,1,131.88,49V-75.17a2.55,2.55,0,0,1,2.55-2.55A2.55,2.55,0,0,1,137-75.17V48.94a2.55,2.55,0,0,1-2.52,2.58Z" transform="translate(-68.49 100.16)" fill="#5ff9f5"/><path d="M145,65.94a2.55,2.55,0,0,1-2.55-2.55v-153A2.55,2.55,0,0,1,145-92.18a2.55,2.55,0,0,1,2.55,2.55V63.43A2.55,2.55,0,0,1,145,65.94Z" transform="translate(-68.49 100.16)" fill="#5ff9f5"/><path d="M155.56,73.94A2.55,2.55,0,0,1,153,71.39v-169a2.55,2.55,0,0,1,2.55-2.55,2.55,2.55,0,0,1,2.55,2.55v169A2.55,2.55,0,0,1,155.56,73.94Z" transform="translate(-68.49 100.16)" fill="#5ff9f5"/><circle cx="87.24" cy="87.04" r="45.93" fill="#09091e"/><path d="M175.8-39a2.57,2.57,0,0,0-2.87-2.23,2.31,2.31,0,0,0-.52.12L145-31.3a2.58,2.58,0,0,0-1.7,2.4V-3.67A8.13,8.13,0,1,0,147.84,6.9a8.21,8.21,0,0,0,.58-2.77,1.13,1.13,0,0,0,0-.26V-18.3l22.28-8v12.81A8.11,8.11,0,0,0,160.15-9a8.11,8.11,0,0,0,4.52,10.56,8.12,8.12,0,0,0,10.55-4.53,8.1,8.1,0,0,0,.58-2.75,1.13,1.13,0,0,0,0-.26V-38.68A1.41,1.41,0,0,0,175.8-39Zm-5.09,7.3-22.28,8v-3.39l22.28-8Z" transform="translate(-68.49 100.16)" fill="#fff"/></g></g></g></g><g id="b6c0f43c-0cbb-4c7a-bfc8-fedb73b6b8de" data-name="Layer 2"><path d="M266.8-6.32l-.59,1.41c-.9,2-2.19,3.06-3.85,3.06a3.28,3.28,0,0,1-2.27-.88,2.59,2.59,0,0,1-1-2A6.83,6.83,0,0,1,260-7.6l4.11-8.33c1-2,2.26-3,3.76-3a3.06,3.06,0,0,1,2.07.79,2.48,2.48,0,0,1,.86,1.86,8,8,0,0,1-.18,1.21,5.44,5.44,0,0,0-.13,1.2,6.88,6.88,0,0,0,1.45,4l1.76,2.43a12.53,12.53,0,0,1,2.68,7.22,8.41,8.41,0,0,1-2.9,6.5,10.35,10.35,0,0,1-7.21,2.6H259.8c-2.62,0-3.92-.9-3.92-2.71a3.49,3.49,0,0,1,1.39-3,6.23,6.23,0,0,1,3.82-1.06h3.54q4.29,0,4.29-3.12a6.18,6.18,0,0,0-.8-2.68Z" transform="translate(-68.49 100.16)" fill="#fff"/><path d="M292.18-13.42a12,12,0,0,1,5.33-1.76,7.18,7.18,0,0,1,4.86,1.65,5.42,5.42,0,0,1,1.9,4.21,9.27,9.27,0,0,1-.74,3.37l-3.24,8.08h3.55c2.59,0,3.88.92,3.88,2.74a3.48,3.48,0,0,1-1.37,2.93,6.16,6.16,0,0,1-3.84,1h-6.2A4.94,4.94,0,0,1,293,7.73,3.46,3.46,0,0,1,291.65,5a7.62,7.62,0,0,1,.71-2.84l2.84-7a6.22,6.22,0,0,0,.52-2c0-1.17-.78-1.76-2.34-1.76q-3.15,0-5.31,5.37l-3.44,8.5c-1.09,2.7-2.7,4-4.84,4a3,3,0,0,1-2.16-.8,2.46,2.46,0,0,1-.9-1.94,5.57,5.57,0,0,1,.47-2l.33-.83L291-29.43c1.17-2.83,2.78-4.25,4.81-4.25a3.1,3.1,0,0,1,2.18.85,2.74,2.74,0,0,1,.91,2,9,9,0,0,1-.8,2.93Z" transform="translate(-68.49 100.16)" fill="#fff"/><path d="M330.2,2.13h3.58a5.49,5.49,0,0,1,3,.63,2.39,2.39,0,0,1,.9,2.08,3.55,3.55,0,0,1-1.37,3,6.11,6.11,0,0,1-3.84,1.06h-5.53a3.36,3.36,0,0,1-3.45-2,5.35,5.35,0,0,1-4.26,2h-4.5a6.23,6.23,0,0,1-4.5-1.69,5.61,5.61,0,0,1-1.79-4.29,9.25,9.25,0,0,1,.8-3.46l4.2-10.3q1.76-4.29,4.81-4.29a3.29,3.29,0,0,1,2.25.85,2.76,2.76,0,0,1,.92,2.08,5.76,5.76,0,0,1-.49,2.13l-.34.84-3.24,7.92L317-.38a5.73,5.73,0,0,0-.31,1.2c0,.93.56,1.39,1.79,1.39q3.83,0,5.09-3.09l3.86-9.5q1.72-4.3,4.87-4.31a3.12,3.12,0,0,1,2.22.86,2.78,2.78,0,0,1,.93,2.07,9.39,9.39,0,0,1-.8,3Z" transform="translate(-68.49 100.16)" fill="#fff"/><path d="M355.28-14.76h4.26c2.6,0,3.91.92,3.91,2.74a3.48,3.48,0,0,1-1.37,2.93A6.16,6.16,0,0,1,358.24-8h-5.68L338.72,26.11c-1.16,2.81-2.76,4.22-4.82,4.22a3.23,3.23,0,0,1-2.28-.83,2.63,2.63,0,0,1-.92-2.07,9.12,9.12,0,0,1,.8-2.93L344.73-8h-2.1q-3.93,0-3.91-2.68a3.52,3.52,0,0,1,1.37-3,6.14,6.14,0,0,1,3.84-1h3.51l3.92-9.66c1.32-3.21,2.9-5.48,4.74-6.83a12.21,12.21,0,0,1,7.38-2H367c2.62,0,3.94.91,3.95,2.71a3.66,3.66,0,0,1-1.39,3,6.15,6.15,0,0,1-3.85,1.08h-.93a7.14,7.14,0,0,0-4.09,1,7.83,7.83,0,0,0-2.51,3.55Z" transform="translate(-68.49 100.16)" fill="#fff"/><path d="M378.63-14.76h4.26c2.61,0,3.92.92,3.92,2.74a3.47,3.47,0,0,1-1.38,2.93A6.1,6.1,0,0,1,381.59-8h-5.67L362.07,26.11c-1.15,2.81-2.76,4.22-4.81,4.22A3.26,3.26,0,0,1,355,29.5a2.64,2.64,0,0,1-.92-2.07,9.12,9.12,0,0,1,.8-2.93L368.08-8H366c-2.62,0-3.92-.89-3.92-2.68a3.55,3.55,0,0,1,1.37-3,6.2,6.2,0,0,1,3.84-1.06h3.52l3.92-9.66c1.31-3.21,2.89-5.48,4.73-6.83a12.22,12.22,0,0,1,7.39-2h3.51c2.64,0,4,.9,4,2.71a3.62,3.62,0,0,1-1.39,3,6,6,0,0,1-3.85,1.08h-.93a7.19,7.19,0,0,0-4.08,1,7.85,7.85,0,0,0-2.52,3.55Z" transform="translate(-68.49 100.16)" fill="#fff"/><path d="M390.57,2.13h3.23c2.62,0,3.92.91,3.92,2.74a3.48,3.48,0,0,1-1.37,2.93,6.16,6.16,0,0,1-3.84,1H387a5.49,5.49,0,0,1-3.61-1.08A3.46,3.46,0,0,1,382,4.87a9.83,9.83,0,0,1,.9-3.17L395.38-29l.34-.84q1.41-3.45,4.53-3.45a3.18,3.18,0,0,1,2.21.86,2.83,2.83,0,0,1,.91,2.07,6,6,0,0,1-.47,2.1l-.34.83Z" transform="translate(-68.49 100.16)" fill="#fff"/><path d="M405.7-.19c0,1.55,1.17,2.32,3.49,2.32h9.16c2.58,0,3.88.92,3.89,2.74a3.48,3.48,0,0,1-1.37,2.93,6.15,6.15,0,0,1-3.85,1H408.3c-3.25,0-5.73-.8-7.42-2.4s-2.55-4-2.55-7a14.49,14.49,0,0,1,4-10.27,12.67,12.67,0,0,1,9.58-4.32A9.65,9.65,0,0,1,418.4-13a7,7,0,0,1,2.45,5.56,6.67,6.67,0,0,1-3.39,6.17,10.94,10.94,0,0,1-5.62,1.14Zm1.49-5.61h3.44c2.2,0,3.27-.48,3.21-1.45s-.78-1.63-2.13-1.63c-1.94,0-3.44,1-4.52,3.12Z" transform="translate(-68.49 100.16)" fill="#fff"/><path d="M260.73,8.45c-4.28,0-4.91-2.32-4.91-3.71A4.43,4.43,0,0,1,257.6,1,7.12,7.12,0,0,1,262-.27h3.6c3.28,0,3.28-1.43,3.28-2.12a5.29,5.29,0,0,0-.69-2.22l-.39-.77c-1.33,2.57-3.17,3.13-4.52,3.13a4.26,4.26,0,0,1-2.92-1.13A3.56,3.56,0,0,1,259-6.15a7.82,7.82,0,0,1,1-3.32l4.1-8.32c1.19-2.36,2.76-3.55,4.66-3.55a4,4,0,0,1,2.74,1.05,3.52,3.52,0,0,1,1.19,2.6,8,8,0,0,1-.2,1.4,4.86,4.86,0,0,0-.11,1,5.92,5.92,0,0,0,1.27,3.4l1.75,2.43a13.62,13.62,0,0,1,2.88,7.8,9.39,9.39,0,0,1-3.23,7.24,11.41,11.41,0,0,1-7.89,2.86Z" transform="translate(-68.49 100.16)" fill="#09091e"/><path d="M280.71,8.88a4.07,4.07,0,0,1-2.83-1,3.48,3.48,0,0,1-1.25-2.74,6.44,6.44,0,0,1,.53-2.4L290.92-31.2c1.34-3.24,3.27-4.88,5.74-4.88A4,4,0,0,1,299.51-35a3.71,3.71,0,0,1,1.23,2.79,9.45,9.45,0,0,1-.88,3.31L295-16.82a9.72,9.72,0,0,1,3.45-.76,8.21,8.21,0,0,1,5.51,1.9,6.32,6.32,0,0,1,2.24,5,10.2,10.2,0,0,1-.81,3.74L302.67-.23h2.07c4.25,0,4.88,2.34,4.88,3.74a4.5,4.5,0,0,1-1.76,3.73,7.13,7.13,0,0,1-4.45,1.25h-6.2a5.93,5.93,0,0,1-4-1.36,4.42,4.42,0,0,1-1.7-3.52A8.61,8.61,0,0,1,292.3.39l2.84-7a5.07,5.07,0,0,0,.45-1.63c0-.32,0-.76-1.35-.76-1.64,0-3.11,1.6-4.38,4.74l-3.38,8.5C285.23,7.31,283.29,8.88,280.71,8.88Z" transform="translate(-68.49 100.16)" fill="#09091e"/><path d="M327.9,8.45A4.54,4.54,0,0,1,324.27,7a6.22,6.22,0,0,1-4.08,1.43h-4.51a7.24,7.24,0,0,1-5.19-2,6.61,6.61,0,0,1-2.1-5,10.15,10.15,0,0,1,.88-3.83l4.19-10.31c1.34-3.26,3.27-4.91,5.74-4.91a4.28,4.28,0,0,1,2.93,1.11,3.8,3.8,0,0,1,1.25,2.82,6.76,6.76,0,0,1-.57,2.51L319.23-2.4l-.32.89a4.53,4.53,0,0,0-.26.94v.16a1.21,1.21,0,0,0,.77.15c2.15,0,3.47-.78,4.16-2.47l3.86-9.49c1.31-3.28,3.26-4.94,5.8-4.94a4.18,4.18,0,0,1,2.9,1.13,3.8,3.8,0,0,1,1.24,2.8,10.06,10.06,0,0,1-.87,3.33L332.63-.27h2.1a6.34,6.34,0,0,1,3.59.81,3.35,3.35,0,0,1,1.32,2.9,4.5,4.5,0,0,1-1.76,3.74,7.09,7.09,0,0,1-4.45,1.27Z" transform="translate(-68.49 100.16)" fill="#09091e"/><path d="M334.84,30a4.21,4.21,0,0,1-2.95-1.09,3.6,3.6,0,0,1-1.26-2.81,9.78,9.78,0,0,1,.87-3.3L344.18-8.42h-.61c-4.28,0-4.92-2.31-4.92-3.68a4.5,4.5,0,0,1,1.76-3.77,7.18,7.18,0,0,1,4.45-1.27h2.84l3.67-9c1.38-3.36,3.09-5.81,5.07-7.26a13.33,13.33,0,0,1,8-2.21H368c4.31,0,4.95,2.33,4.95,3.71a4.57,4.57,0,0,1-1.77,3.81,7,7,0,0,1-4.47,1.3h-.93a6.16,6.16,0,0,0-3.51.86,6.89,6.89,0,0,0-2.16,3.11l-2.34,5.72h2.77c4.28,0,4.92,2.34,4.92,3.74a4.47,4.47,0,0,1-1.77,3.73,7.13,7.13,0,0,1-4.45,1.25h-5L340.63,25.1C339.26,28.32,337.33,30,334.84,30Z" transform="translate(-68.49 100.16)" fill="#09091e"/><path d="M358.18,30a4.22,4.22,0,0,1-2.95-1.09A3.6,3.6,0,0,1,354,26.05a9.78,9.78,0,0,1,.87-3.3L367.52-8.42h-.61c-4.28,0-4.92-2.31-4.92-3.68a4.5,4.5,0,0,1,1.76-3.77,7.14,7.14,0,0,1,4.46-1.27h2.84l3.66-9c1.38-3.36,3.09-5.81,5.07-7.26a13.33,13.33,0,0,1,8-2.21h3.52c4.3,0,5,2.33,5,3.71a4.58,4.58,0,0,1-1.78,3.81,7,7,0,0,1-4.47,1.3h-.92a6.19,6.19,0,0,0-3.52.86,6.89,6.89,0,0,0-2.16,3.11l-2.33,5.72h2.76c4.28,0,4.92,2.34,4.92,3.74A4.48,4.48,0,0,1,387-9.63a7.13,7.13,0,0,1-4.45,1.25h-5L364,25.14C362.63,28.32,360.63,30,358.18,30Z" transform="translate(-68.49 100.16)" fill="#09091e"/><path d="M387.89,8.45a6.46,6.46,0,0,1-4.24-1.3A4.51,4.51,0,0,1,382,3.47a10.53,10.53,0,0,1,1-3.55l12.81-31.49c1.38-3.37,3.73-4.08,5.46-4.08a4.15,4.15,0,0,1,2.89,1.14,3.79,3.79,0,0,1,1.22,2.79,7.13,7.13,0,0,1-.53,2.46L393-.26h1.75c4.28,0,4.92,2.34,4.92,3.74a4.49,4.49,0,0,1-1.77,3.73,7.13,7.13,0,0,1-4.45,1.25Z" transform="translate(-68.49 100.16)" fill="#09091e"/><path d="M409.23,8.45c-3.5,0-6.23-.9-8.11-2.68s-2.85-4.4-2.85-7.76a15.59,15.59,0,0,1,4.29-11,13.67,13.67,0,0,1,10.31-4.64A10.66,10.66,0,0,1,420-15.27a8,8,0,0,1,2.8,6.32,7.63,7.63,0,0,1-3.88,7,11.83,11.83,0,0,1-6.12,1.28h-4.57a4.15,4.15,0,0,0,1.88.32h9.16c4.26,0,4.89,2.34,4.89,3.74a4.5,4.5,0,0,1-1.76,3.73A7.13,7.13,0,0,1,418,8.37ZM411.51-8.2c1.88,0,2.22-.38,2.22-.39,0-.33-.05-.69-1.14-.69A3.45,3.45,0,0,0,410-8.2Z" transform="translate(-68.49 100.16)" fill="#09091e"/><path d="M260.27,9.15c-4.28,0-4.92-2.32-4.92-3.71a4.46,4.46,0,0,1,1.78-3.74A7.12,7.12,0,0,1,261.56.43h3.58c3.29,0,3.29-1.43,3.29-2.12a5.29,5.29,0,0,0-.69-2.22l-.4-.77c-1.33,2.57-3.17,3.13-4.51,3.13a4.29,4.29,0,0,1-2.93-1.13,3.55,3.55,0,0,1-1.34-2.77,7.55,7.55,0,0,1,1-3.32l4.1-8.32c1.19-2.36,2.75-3.55,4.66-3.55a4.07,4.07,0,0,1,2.74,1,3.52,3.52,0,0,1,1.19,2.6,8,8,0,0,1-.21,1.4,4.85,4.85,0,0,0-.1,1,5.84,5.84,0,0,0,1.26,3.4L275-8.81A13.61,13.61,0,0,1,277.83-1a9.39,9.39,0,0,1-3.23,7.24,11.37,11.37,0,0,1-7.89,2.86Z" transform="translate(-68.49 100.16)" fill="#09091e"/><path d="M280.24,9.58a4,4,0,0,1-2.82-1.05,3.47,3.47,0,0,1-1.23-2.69,6.44,6.44,0,0,1,.53-2.4L290.48-30.5c1.34-3.24,3.27-4.88,5.74-4.88a4.16,4.16,0,0,1,2.86,1.11,3.76,3.76,0,0,1,1.23,2.79,9.5,9.5,0,0,1-.88,3.31l-4.9,12a9.72,9.72,0,0,1,3.45-.76,8.16,8.16,0,0,1,5.51,1.9,6.32,6.32,0,0,1,2.24,5,10.2,10.2,0,0,1-.81,3.74L302.23.42h2.07c4.25,0,4.89,2.34,4.89,3.74a4.49,4.49,0,0,1-1.77,3.73A7.12,7.12,0,0,1,303,9.14h-6.2a5.93,5.93,0,0,1-4-1.36,4.36,4.36,0,0,1-1.7-3.52A8.42,8.42,0,0,1,291.86,1l2.84-7a5.07,5.07,0,0,0,.45-1.63c0-.32,0-.76-1.34-.76-1.64,0-3.12,1.6-4.38,4.74L286,4.88C284.76,8,282.82,9.58,280.24,9.58Z" transform="translate(-68.49 100.16)" fill="#09091e"/><path d="M327.43,9.15a4.54,4.54,0,0,1-3.63-1.43,6.22,6.22,0,0,1-4.08,1.43h-4.5a7.24,7.24,0,0,1-5.19-2,6.56,6.56,0,0,1-2.11-5,10.15,10.15,0,0,1,.88-3.83L313-12c1.33-3.26,3.26-4.91,5.73-4.91a4.29,4.29,0,0,1,2.9,1.14,3.8,3.8,0,0,1,1.25,2.82,6.76,6.76,0,0,1-.57,2.51l-3.58,8.76-.32.89a3.54,3.54,0,0,0-.25.94.22.22,0,0,0,0,.16,1.21,1.21,0,0,0,.77.15c2.15,0,3.47-.78,4.17-2.47L327-11.49c1.31-3.28,3.26-4.94,5.8-4.94a4.18,4.18,0,0,1,2.9,1.13,3.74,3.74,0,0,1,1.25,2.8A10.07,10.07,0,0,1,336-9.17L332.11.44h2.09a6.39,6.39,0,0,1,3.6.81,3.39,3.39,0,0,1,1.32,2.9,4.54,4.54,0,0,1-1.76,3.74,7.12,7.12,0,0,1-4.46,1.27Z" transform="translate(-68.49 100.16)" fill="#09091e"/><path d="M334.37,30.65a4.21,4.21,0,0,1-2.95-1.09,3.67,3.67,0,0,1-1.26-2.81,9.78,9.78,0,0,1,.87-3.3L343.71-7.76h-.61c-4.28,0-4.92-2.31-4.92-3.68a4.5,4.5,0,0,1,1.76-3.77,7.18,7.18,0,0,1,4.45-1.27h2.85l3.66-9c1.38-3.36,3.09-5.81,5.07-7.26a13.33,13.33,0,0,1,8-2.21h3.52c4.3,0,4.94,2.33,4.94,3.71a4.57,4.57,0,0,1-1.77,3.81,7,7,0,0,1-4.47,1.3h-.92a6.19,6.19,0,0,0-3.52.86,6.89,6.89,0,0,0-2.16,3.11l-2.33,5.72H360c4.28,0,4.92,2.34,4.92,3.74A4.47,4.47,0,0,1,363.17-9a7.12,7.12,0,0,1-4.44,1.25h-5L340.14,25.8C338.79,29,336.86,30.65,334.37,30.65Z" transform="translate(-68.49 100.16)" fill="#09091e"/><path d="M357.71,30.65a4.22,4.22,0,0,1-2.95-1.09,3.59,3.59,0,0,1-1.25-2.81,9.55,9.55,0,0,1,.87-3.3L367.05-7.76h-.61c-4.28,0-4.91-2.31-4.91-3.68a4.5,4.5,0,0,1,1.76-3.77,7.1,7.1,0,0,1,4.45-1.27h2.89l3.67-9c1.38-3.36,3.08-5.81,5.07-7.26a13.26,13.26,0,0,1,8-2.21h3.52c4.31,0,4.95,2.33,4.95,3.71a4.57,4.57,0,0,1-1.77,3.81,7.09,7.09,0,0,1-4.47,1.3h-1a6.16,6.16,0,0,0-3.51.86A6.91,6.91,0,0,0,383-22.16l-2.32,5.72h2.77c4.27,0,4.91,2.34,4.91,3.74A4.48,4.48,0,0,1,386.55-9a7.13,7.13,0,0,1-4.45,1.25h-5L363.5,25.8C362.14,29,360.2,30.65,357.71,30.65Z" transform="translate(-68.49 100.16)" fill="#09091e"/><path d="M387.42,9.15a6.51,6.51,0,0,1-4.24-1.3,4.51,4.51,0,0,1-1.69-3.68,10.53,10.53,0,0,1,1-3.55l12.8-31.49c1.38-3.37,3.73-4.08,5.46-4.08a4,4,0,0,1,2.88,1.19A3.79,3.79,0,0,1,404.85-31a7.13,7.13,0,0,1-.53,2.46L392.54.49h1.75c4.28,0,4.92,2.34,4.92,3.74A4.49,4.49,0,0,1,397.44,8,7.12,7.12,0,0,1,393,9.21Z" transform="translate(-68.49 100.16)" fill="#09091e"/><path d="M408.76,9.15c-3.5,0-6.22-.9-8.1-2.68s-2.86-4.4-2.86-7.76a15.54,15.54,0,0,1,4.29-10.95,13.67,13.67,0,0,1,10.31-4.64,10.66,10.66,0,0,1,7.15,2.36,8,8,0,0,1,2.8,6.32,7.63,7.63,0,0,1-3.89,7A11.73,11.73,0,0,1,412.34.08h-4.56a3.9,3.9,0,0,0,1.88.32h9.16c4.25,0,4.88,2.34,4.88,3.74a4.5,4.5,0,0,1-1.76,3.73,7.13,7.13,0,0,1-4.45,1.25ZM411-7.5c1.88,0,2.22-.38,2.23-.39,0-.33,0-.69-1.15-.69a3.42,3.42,0,0,0-2.54,1.08Z" transform="translate(-68.49 100.16)" fill="#09091e"/><path d="M259.8,9.85c-4.28,0-4.92-2.32-4.92-3.71a4.46,4.46,0,0,1,1.78-3.74,7.12,7.12,0,0,1,4.43-1.27h3.54c3.29,0,3.29-1.43,3.29-2.12a5.29,5.29,0,0,0-.69-2.22L266.84-4c-1.34,2.57-3.17,3.13-4.52,3.13A4.29,4.29,0,0,1,259.39-2a3.55,3.55,0,0,1-1.34-2.77,7.82,7.82,0,0,1,1-3.32l4.1-8.32c1.19-2.36,2.76-3.55,4.66-3.55a4,4,0,0,1,2.74,1.05,3.52,3.52,0,0,1,1.19,2.6,8,8,0,0,1-.2,1.4,4.86,4.86,0,0,0-.11,1,5.92,5.92,0,0,0,1.27,3.4l1.75,2.43a13.54,13.54,0,0,1,2.87,7.8A9.36,9.36,0,0,1,274.09,7a11.37,11.37,0,0,1-7.88,2.86Z" transform="translate(-68.49 100.16)" fill="#09091e"/><path d="M279.78,10.24a4.07,4.07,0,0,1-2.83-1,3.47,3.47,0,0,1-1.23-2.69,6.45,6.45,0,0,1,.54-2.4L290-29.76c1.33-3.24,3.26-4.88,5.73-4.88a4.16,4.16,0,0,1,2.86,1.11,3.71,3.71,0,0,1,1.23,2.79,9.5,9.5,0,0,1-.88,3.31l-4.89,12a9.62,9.62,0,0,1,3.44-.76,8.18,8.18,0,0,1,5.52,1.9,6.35,6.35,0,0,1,2.24,5,10,10,0,0,1-.82,3.74l-2.68,6.71h2.07c4.25,0,4.88,2.34,4.88,3.74A4.5,4.5,0,0,1,307,8.68a7.13,7.13,0,0,1-4.45,1.25h-6.2a5.93,5.93,0,0,1-4-1.36,4.36,4.36,0,0,1-1.7-3.52,8.61,8.61,0,0,1,.79-3.22l2.83-7a5.07,5.07,0,0,0,.45-1.63c0-.32,0-.76-1.34-.76-1.64,0-3.11,1.6-4.38,4.74l-3.45,8.49C284.29,8.71,282.35,10.24,279.78,10.24Z" transform="translate(-68.49 100.16)" fill="#09091e"/><path d="M327,9.85a4.53,4.53,0,0,1-3.62-1.43,6.23,6.23,0,0,1-4.09,1.43h-4.5a7.24,7.24,0,0,1-5.19-2,6.61,6.61,0,0,1-2.1-5A10.33,10.33,0,0,1,308.33-1l4.2-10.31c1.34-3.26,3.27-4.91,5.74-4.91a4.26,4.26,0,0,1,2.92,1.11,3.8,3.8,0,0,1,1.25,2.82,7,7,0,0,1-.56,2.51L318.3-1,318-.11a4.5,4.5,0,0,0-.25.94V1a1.18,1.18,0,0,0,.76.15c2.16,0,3.48-.78,4.17-2.47l3.88-9.43c1.31-3.28,3.27-4.94,5.8-4.94a4.19,4.19,0,0,1,2.91,1.13,3.8,3.8,0,0,1,1.24,2.8,10.06,10.06,0,0,1-.87,3.33l-3.92,9.61h2.09a6.39,6.39,0,0,1,3.6.81,3.39,3.39,0,0,1,1.32,2.9,4.5,4.5,0,0,1-1.76,3.74,7.09,7.09,0,0,1-4.45,1.27Z" transform="translate(-68.49 100.16)" fill="#09091e"/><path d="M333.9,31.35A4.22,4.22,0,0,1,331,30.26a3.64,3.64,0,0,1-1.25-2.81,9.55,9.55,0,0,1,.87-3.3L343.24-7h-.61c-4.28,0-4.91-2.31-4.91-3.68a4.54,4.54,0,0,1,1.75-3.77,7.16,7.16,0,0,1,4.46-1.29h2.84l3.66-9c1.39-3.36,3.09-5.81,5.08-7.26a13.26,13.26,0,0,1,8-2.21H367c4.3,0,5,2.33,5,3.71a4.58,4.58,0,0,1-1.78,3.81,7,7,0,0,1-4.46,1.3h-.93a6.16,6.16,0,0,0-3.51.86,6.91,6.91,0,0,0-2.17,3.11l-2.36,5.68h2.77c4.27,0,4.91,2.34,4.91,3.74a4.48,4.48,0,0,1-1.76,3.73A7.13,7.13,0,0,1,358.24-7h-5L339.63,26.5C338.33,29.72,336.39,31.35,333.9,31.35Z" transform="translate(-68.49 100.16)" fill="#09091e"/><path d="M357.25,31.35a4.21,4.21,0,0,1-2.95-1.09A3.6,3.6,0,0,1,353,27.45a9.78,9.78,0,0,1,.87-3.3L366.63-7H366c-4.28,0-4.92-2.31-4.92-3.68a4.5,4.5,0,0,1,1.76-3.77,7.18,7.18,0,0,1,4.45-1.27h2.84l3.67-9c1.38-3.36,3.09-5.81,5.07-7.26a13.33,13.33,0,0,1,8-2.21h3.51c4.31,0,5,2.33,5,3.71a4.57,4.57,0,0,1-1.77,3.81,7,7,0,0,1-4.47,1.3h-.93a6.16,6.16,0,0,0-3.51.86,6.89,6.89,0,0,0-2.16,3.11l-2.45,5.66h2.77c4.28,0,4.92,2.34,4.92,3.74A4.47,4.47,0,0,1,386-8.29,7.13,7.13,0,0,1,381.58-7h-5L363,26.48C361.63,29.72,359.74,31.35,357.25,31.35Z" transform="translate(-68.49 100.16)" fill="#09091e"/><path d="M387,9.85a6.46,6.46,0,0,1-4.24-1.3A4.48,4.48,0,0,1,381,4.87a10.53,10.53,0,0,1,1-3.55l12.8-31.49c1.39-3.37,3.73-4.08,5.46-4.08a4.07,4.07,0,0,1,2.9,1.14,3.79,3.79,0,0,1,1.22,2.79,6.87,6.87,0,0,1-.54,2.46l-11.78,29h1.75c4.28,0,4.92,2.34,4.92,3.74A4.5,4.5,0,0,1,397,8.61a7.13,7.13,0,0,1-4.45,1.25Z" transform="translate(-68.49 100.16)" fill="#09091e"/><path d="M408.3,9.85c-3.5,0-6.23-.9-8.11-2.68s-2.86-4.4-2.86-7.76a15.55,15.55,0,0,1,4.3-10.95,13.67,13.67,0,0,1,10.31-4.64,10.66,10.66,0,0,1,7.14,2.36,8,8,0,0,1,2.8,6.32A7.63,7.63,0,0,1,418-.5,11.86,11.86,0,0,1,411.87.78h-4.56a4,4,0,0,0,1.88.32h9.16c4.25,0,4.89,2.34,4.89,3.74a4.49,4.49,0,0,1-1.77,3.73A7.13,7.13,0,0,1,417,9.82Zm2.33-16.61c1.87,0,2.22-.38,2.22-.39,0-.33-.05-.69-1.14-.69a3.45,3.45,0,0,0-2.55,1.08Z" transform="translate(-68.49 100.16)" fill="#09091e"/><path d="M266.8-6.32l-.59,1.41c-.9,2-2.19,3.06-3.85,3.06a3.28,3.28,0,0,1-2.27-.88,2.59,2.59,0,0,1-1-2A6.83,6.83,0,0,1,260-7.6l4.11-8.33c1-2,2.26-3,3.76-3a3.06,3.06,0,0,1,2.07.79,2.48,2.48,0,0,1,.86,1.86,8,8,0,0,1-.18,1.21,5.44,5.44,0,0,0-.13,1.2,6.88,6.88,0,0,0,1.45,4l1.76,2.43a12.53,12.53,0,0,1,2.68,7.22,8.41,8.41,0,0,1-2.9,6.5,10.35,10.35,0,0,1-7.21,2.6H259.8c-2.62,0-3.92-.9-3.92-2.71a3.49,3.49,0,0,1,1.39-3,6.23,6.23,0,0,1,3.82-1.06h3.54q4.29,0,4.29-3.12a6.18,6.18,0,0,0-.8-2.68Z" transform="translate(-68.49 100.16)" fill="#5ff9f5"/><path d="M292.18-13.42a12,12,0,0,1,5.33-1.76,7.18,7.18,0,0,1,4.86,1.65,5.42,5.42,0,0,1,1.9,4.21,9.27,9.27,0,0,1-.74,3.37l-3.24,8.08h3.55c2.59,0,3.88.92,3.88,2.74a3.48,3.48,0,0,1-1.37,2.93,6.16,6.16,0,0,1-3.84,1h-6.2A4.94,4.94,0,0,1,293,7.73,3.46,3.46,0,0,1,291.65,5a7.62,7.62,0,0,1,.71-2.84l2.84-7a6.22,6.22,0,0,0,.52-2c0-1.17-.78-1.76-2.34-1.76q-3.15,0-5.31,5.37l-3.44,8.5c-1.09,2.7-2.7,4-4.84,4a3,3,0,0,1-2.16-.8,2.46,2.46,0,0,1-.9-1.94,5.57,5.57,0,0,1,.47-2l.33-.83L291-29.43c1.17-2.83,2.78-4.25,4.81-4.25a3.1,3.1,0,0,1,2.18.85,2.74,2.74,0,0,1,.91,2,9,9,0,0,1-.8,2.93Z" transform="translate(-68.49 100.16)" fill="#5ff9f5"/><path d="M330.2,2.13h3.58a5.49,5.49,0,0,1,3,.63,2.39,2.39,0,0,1,.9,2.08,3.55,3.55,0,0,1-1.37,3,6.11,6.11,0,0,1-3.84,1.06h-5.53a3.36,3.36,0,0,1-3.45-2,5.35,5.35,0,0,1-4.26,2h-4.5a6.23,6.23,0,0,1-4.5-1.69,5.61,5.61,0,0,1-1.79-4.29,9.25,9.25,0,0,1,.8-3.46l4.2-10.3q1.76-4.29,4.81-4.29a3.29,3.29,0,0,1,2.25.85,2.76,2.76,0,0,1,.92,2.08,5.76,5.76,0,0,1-.49,2.13l-.34.84-3.24,7.92L317-.38a5.73,5.73,0,0,0-.31,1.2c0,.93.56,1.39,1.79,1.39q3.83,0,5.09-3.09l3.86-9.5q1.72-4.3,4.87-4.31a3.12,3.12,0,0,1,2.22.86,2.78,2.78,0,0,1,.93,2.07,9.39,9.39,0,0,1-.8,3Z" transform="translate(-68.49 100.16)" fill="#5ff9f5"/><path d="M355.28-14.76h4.26c2.6,0,3.91.92,3.91,2.74a3.48,3.48,0,0,1-1.37,2.93A6.16,6.16,0,0,1,358.24-8h-5.68L338.72,26.11c-1.16,2.81-2.76,4.22-4.82,4.22a3.23,3.23,0,0,1-2.28-.83,2.63,2.63,0,0,1-.92-2.07,9.12,9.12,0,0,1,.8-2.93L344.73-8h-2.1q-3.93,0-3.91-2.68a3.52,3.52,0,0,1,1.37-3,6.14,6.14,0,0,1,3.84-1h3.51l3.92-9.66c1.32-3.21,2.9-5.48,4.74-6.83a12.21,12.21,0,0,1,7.38-2H367c2.62,0,3.94.91,3.95,2.71a3.66,3.66,0,0,1-1.39,3,6.15,6.15,0,0,1-3.85,1.08h-.93a7.14,7.14,0,0,0-4.09,1,7.83,7.83,0,0,0-2.51,3.55Z" transform="translate(-68.49 100.16)" fill="#5ff9f5"/><path d="M378.63-14.76h4.26c2.61,0,3.92.92,3.92,2.74a3.47,3.47,0,0,1-1.38,2.93A6.1,6.1,0,0,1,381.59-8h-5.67L362.07,26.11c-1.15,2.81-2.76,4.22-4.81,4.22A3.26,3.26,0,0,1,355,29.5a2.64,2.64,0,0,1-.92-2.07,9.12,9.12,0,0,1,.8-2.93L368.08-8H366c-2.62,0-3.92-.89-3.92-2.68a3.55,3.55,0,0,1,1.37-3,6.2,6.2,0,0,1,3.84-1.06h3.52l3.92-9.66c1.31-3.21,2.89-5.48,4.73-6.83a12.22,12.22,0,0,1,7.39-2h3.51c2.64,0,4,.9,4,2.71a3.62,3.62,0,0,1-1.39,3,6,6,0,0,1-3.85,1.08h-.93a7.19,7.19,0,0,0-4.08,1,7.85,7.85,0,0,0-2.52,3.55Z" transform="translate(-68.49 100.16)" fill="#5ff9f5"/><path d="M390.57,2.13h3.23c2.62,0,3.92.91,3.92,2.74a3.48,3.48,0,0,1-1.37,2.93,6.16,6.16,0,0,1-3.84,1H387a5.49,5.49,0,0,1-3.61-1.08A3.46,3.46,0,0,1,382,4.87a9.83,9.83,0,0,1,.9-3.17L395.38-29l.34-.84q1.41-3.45,4.53-3.45a3.18,3.18,0,0,1,2.21.86,2.83,2.83,0,0,1,.91,2.07,6,6,0,0,1-.47,2.1l-.34.83Z" transform="translate(-68.49 100.16)" fill="#5ff9f5"/><path d="M405.7-.19c0,1.55,1.17,2.32,3.49,2.32h9.16c2.58,0,3.88.92,3.89,2.74a3.48,3.48,0,0,1-1.37,2.93,6.15,6.15,0,0,1-3.85,1H408.3c-3.25,0-5.73-.8-7.42-2.4s-2.55-4-2.55-7a14.49,14.49,0,0,1,4-10.27,12.67,12.67,0,0,1,9.58-4.32A9.65,9.65,0,0,1,418.4-13a7,7,0,0,1,2.45,5.56,6.67,6.67,0,0,1-3.39,6.17,10.94,10.94,0,0,1-5.62,1.14Zm1.49-5.61h3.44c2.2,0,3.27-.48,3.21-1.45s-.78-1.63-2.13-1.63c-1.94,0-3.44,1-4.52,3.12Z" transform="translate(-68.49 100.16)" fill="#5ff9f5"/><g opacity="0.5"><path d="M266.8-6.32l-.59,1.41c-.9,2-2.19,3.06-3.85,3.06a3.28,3.28,0,0,1-2.27-.88,2.59,2.59,0,0,1-1-2A6.83,6.83,0,0,1,260-7.6l4.11-8.33c1-2,2.26-3,3.76-3a3.06,3.06,0,0,1,2.07.79,2.48,2.48,0,0,1,.86,1.86,8,8,0,0,1-.18,1.21,5.44,5.44,0,0,0-.13,1.2,6.88,6.88,0,0,0,1.45,4l1.76,2.43a12.53,12.53,0,0,1,2.68,7.22,8.41,8.41,0,0,1-2.9,6.5,10.35,10.35,0,0,1-7.21,2.6H259.8c-2.62,0-3.92-.9-3.92-2.71a3.49,3.49,0,0,1,1.39-3,6.23,6.23,0,0,1,3.82-1.06h3.54q4.29,0,4.29-3.12a6.18,6.18,0,0,0-.8-2.68Z" transform="translate(-68.49 100.16)" fill="#5ff9f5"/><path d="M292.18-13.42a12,12,0,0,1,5.33-1.76,7.18,7.18,0,0,1,4.86,1.65,5.42,5.42,0,0,1,1.9,4.21,9.27,9.27,0,0,1-.74,3.37l-3.24,8.08h3.55c2.59,0,3.88.92,3.88,2.74a3.48,3.48,0,0,1-1.37,2.93,6.16,6.16,0,0,1-3.84,1h-6.2A4.94,4.94,0,0,1,293,7.73,3.46,3.46,0,0,1,291.65,5a7.62,7.62,0,0,1,.71-2.84l2.84-7a6.22,6.22,0,0,0,.52-2c0-1.17-.78-1.76-2.34-1.76q-3.15,0-5.31,5.37l-3.44,8.5c-1.09,2.7-2.7,4-4.84,4a3,3,0,0,1-2.16-.8,2.46,2.46,0,0,1-.9-1.94,5.57,5.57,0,0,1,.47-2l.33-.83L291-29.43c1.17-2.83,2.78-4.25,4.81-4.25a3.1,3.1,0,0,1,2.18.85,2.74,2.74,0,0,1,.91,2,9,9,0,0,1-.8,2.93Z" transform="translate(-68.49 100.16)" fill="#5ff9f5"/><path d="M330.2,2.13h3.58a5.49,5.49,0,0,1,3,.63,2.39,2.39,0,0,1,.9,2.08,3.55,3.55,0,0,1-1.37,3,6.11,6.11,0,0,1-3.84,1.06h-5.53a3.36,3.36,0,0,1-3.45-2,5.35,5.35,0,0,1-4.26,2h-4.5a6.23,6.23,0,0,1-4.5-1.69,5.61,5.61,0,0,1-1.79-4.29,9.25,9.25,0,0,1,.8-3.46l4.2-10.3q1.76-4.29,4.81-4.29a3.29,3.29,0,0,1,2.25.85,2.76,2.76,0,0,1,.92,2.08,5.76,5.76,0,0,1-.49,2.13l-.34.84-3.24,7.92L317-.38a5.73,5.73,0,0,0-.31,1.2c0,.93.56,1.39,1.79,1.39q3.83,0,5.09-3.09l3.86-9.5q1.72-4.3,4.87-4.31a3.12,3.12,0,0,1,2.22.86,2.78,2.78,0,0,1,.93,2.07,9.39,9.39,0,0,1-.8,3Z" transform="translate(-68.49 100.16)" fill="#5ff9f5"/><path d="M355.28-14.76h4.26c2.6,0,3.91.92,3.91,2.74a3.48,3.48,0,0,1-1.37,2.93A6.16,6.16,0,0,1,358.24-8h-5.68L338.72,26.11c-1.16,2.81-2.76,4.22-4.82,4.22a3.23,3.23,0,0,1-2.28-.83,2.63,2.63,0,0,1-.92-2.07,9.12,9.12,0,0,1,.8-2.93L344.73-8h-2.1q-3.93,0-3.91-2.68a3.52,3.52,0,0,1,1.37-3,6.14,6.14,0,0,1,3.84-1h3.51l3.92-9.66c1.32-3.21,2.9-5.48,4.74-6.83a12.21,12.21,0,0,1,7.38-2H367c2.62,0,3.94.91,3.95,2.71a3.66,3.66,0,0,1-1.39,3,6.15,6.15,0,0,1-3.85,1.08h-.93a7.14,7.14,0,0,0-4.09,1,7.83,7.83,0,0,0-2.51,3.55Z" transform="translate(-68.49 100.16)" fill="#5ff9f5"/><path d="M378.63-14.76h4.26c2.61,0,3.92.92,3.92,2.74a3.47,3.47,0,0,1-1.38,2.93A6.1,6.1,0,0,1,381.59-8h-5.67L362.07,26.11c-1.15,2.81-2.76,4.22-4.81,4.22A3.26,3.26,0,0,1,355,29.5a2.64,2.64,0,0,1-.92-2.07,9.12,9.12,0,0,1,.8-2.93L368.08-8H366c-2.62,0-3.92-.89-3.92-2.68a3.55,3.55,0,0,1,1.37-3,6.2,6.2,0,0,1,3.84-1.06h3.52l3.92-9.66c1.31-3.21,2.89-5.48,4.73-6.83a12.22,12.22,0,0,1,7.39-2h3.51c2.64,0,4,.9,4,2.71a3.62,3.62,0,0,1-1.39,3,6,6,0,0,1-3.85,1.08h-.93a7.19,7.19,0,0,0-4.08,1,7.85,7.85,0,0,0-2.52,3.55Z" transform="translate(-68.49 100.16)" fill="#5ff9f5"/><path d="M390.57,2.13h3.23c2.62,0,3.92.91,3.92,2.74a3.48,3.48,0,0,1-1.37,2.93,6.16,6.16,0,0,1-3.84,1H387a5.49,5.49,0,0,1-3.61-1.08A3.46,3.46,0,0,1,382,4.87a9.83,9.83,0,0,1,.9-3.17L395.38-29l.34-.84q1.41-3.45,4.53-3.45a3.18,3.18,0,0,1,2.21.86,2.83,2.83,0,0,1,.91,2.07,6,6,0,0,1-.47,2.1l-.34.83Z" transform="translate(-68.49 100.16)" fill="#5ff9f5"/><path d="M405.7-.19c0,1.55,1.17,2.32,3.49,2.32h9.16c2.58,0,3.88.92,3.89,2.74a3.48,3.48,0,0,1-1.37,2.93,6.15,6.15,0,0,1-3.85,1H408.3c-3.25,0-5.73-.8-7.42-2.4s-2.55-4-2.55-7a14.49,14.49,0,0,1,4-10.27,12.67,12.67,0,0,1,9.58-4.32A9.65,9.65,0,0,1,418.4-13a7,7,0,0,1,2.45,5.56,6.67,6.67,0,0,1-3.39,6.17,10.94,10.94,0,0,1-5.62,1.14Zm1.49-5.61h3.44c2.2,0,3.27-.48,3.21-1.45s-.78-1.63-2.13-1.63c-1.94,0-3.44,1-4.52,3.12Z" transform="translate(-68.49 100.16)" fill="#5ff9f5"/></g></g></svg>