<svg xmlns="http://www.w3.org/2000/svg" viewBox="0 0 175.73 229.95"><title>main logo</title><g id="f74c4993-a78f-4bfe-964f-987b86dbdcd8" data-name="Layer 1"><g id="bcd6d852-e3f0-40e2-b9cf-d481bc182a29" data-name="aacd5d15-9c67-49f2-baad-73490939a108"><g id="af7586c3-238e-40e2-bf55-9d2f9ca20495" data-name="aeed5c98-b5b6-498c-b048-e4d8ac881397"><g id="bf742c58-c060-4895-8cc7-24ce3dd4c2a2" data-name="eaaeef8b-818b-44b2-9594-8966149f9c10"><path d="M240.25-2.36a2.55,2.55,0,0,1-2.55-2.55V-21.28a2.55,2.55,0,0,1,2.55-2.55,2.55,2.55,0,0,1,2.55,2.55V-4.91a2.55,2.55,0,0,1-2.55,2.55Z" transform="translate(-68.49 100.16)" fill="#5ff9f5"/><path d="M229.69,14.28a2.56,2.56,0,0,1-2.55-2.56V-37.92a2.55,2.55,0,0,1,2.55-2.55,2.55,2.55,0,0,1,2.55,2.55V11.73a2.55,2.55,0,0,1-2.55,2.55Z" transform="translate(-68.49 100.16)" fill="#5ff9f5"/><path d="M219.12,8.72a2.55,2.55,0,0,1-2.55-2.55V-32.37a2.55,2.55,0,0,1,2.55-2.55,2.55,2.55,0,0,1,2.55,2.55V6.17a2.55,2.55,0,0,1-2.55,2.55Z" transform="translate(-68.49 100.16)" fill="#5ff9f5"/><path d="M208.56,25.85A2.55,2.55,0,0,1,206,23.3V-49.49A2.55,2.55,0,0,1,208.56-52a2.55,2.55,0,0,1,2.55,2.55V23.3a2.55,2.55,0,0,1-2.55,2.55Z" transform="translate(-68.49 100.16)" fill="#5ff9f5"/><path d="M198,36.17a2.55,2.55,0,0,1-2.55-2.55V-59.82A2.55,2.55,0,0,1,198-62.37a2.55,2.55,0,0,1,2.55,2.55V33.62A2.55,2.55,0,0,1,198,36.17Z" transform="translate(-68.49 100.16)" fill="#5ff9f5"/><path d="M187.43,58.5A2.55,2.55,0,0,1,184.88,56h0V-82.14a2.55,2.55,0,0,1,2.55-2.55A2.55,2.55,0,0,1,190-82.14V55.94a2.55,2.55,0,0,1-2.54,2.56Z" transform="translate(-68.49 100.16)" fill="#5ff9f5"/><path d="M176.86,51.52A2.55,2.55,0,0,1,174.31,49V-75.17a2.55,2.55,0,0,1,2.55-2.55,2.55,2.55,0,0,1,2.55,2.55V48.94a2.55,2.55,0,0,1-2.52,2.58Z" transform="translate(-68.49 100.16)" fill="#5ff9f5"/><path d="M166.3,65.94a2.55,2.55,0,0,1-2.55-2.55v-153a2.55,2.55,0,0,1,2.55-2.55,2.55,2.55,0,0,1,2.55,2.55V63.43A2.55,2.55,0,0,1,166.3,65.94Z" transform="translate(-68.49 100.16)" fill="#5ff9f5"/><path d="M71-2.36a2.55,2.55,0,0,1-2.55-2.55h0V-21.28A2.55,2.55,0,0,1,71-23.83a2.55,2.55,0,0,1,2.55,2.55V-4.91A2.55,2.55,0,0,1,71-2.36Z" transform="translate(-68.49 100.16)" fill="#5ff9f5"/><path d="M81.61,14.28a2.56,2.56,0,0,1-2.55-2.56V-37.92a2.55,2.55,0,0,1,2.55-2.55,2.55,2.55,0,0,1,2.55,2.55V11.73a2.55,2.55,0,0,1-2.55,2.55Z" transform="translate(-68.49 100.16)" fill="#5ff9f5"/><path d="M92.18,8.72a2.55,2.55,0,0,1-2.55-2.55h0V-32.37a2.55,2.55,0,0,1,2.55-2.55,2.55,2.55,0,0,1,2.55,2.55V6.17A2.55,2.55,0,0,1,92.18,8.72Z" transform="translate(-68.49 100.16)" fill="#5ff9f5"/><path d="M102.74,25.85a2.55,2.55,0,0,1-2.55-2.55h0V-49.49A2.55,2.55,0,0,1,102.74-52a2.55,2.55,0,0,1,2.55,2.55V23.3a2.55,2.55,0,0,1-2.55,2.55Z" transform="translate(-68.49 100.16)" fill="#5ff9f5"/><path d="M113.3,36.17a2.55,2.55,0,0,1-2.55-2.55h0V-59.82a2.55,2.55,0,0,1,2.55-2.55,2.55,2.55,0,0,1,2.55,2.55V33.62A2.55,2.55,0,0,1,113.3,36.17Z" transform="translate(-68.49 100.16)" fill="#5ff9f5"/><path d="M123.87,58.5A2.55,2.55,0,0,1,121.32,56V-82.14a2.55,2.55,0,0,1,2.55-2.55,2.55,2.55,0,0,1,2.55,2.55V55.94a2.55,2.55,0,0,1-2.54,2.56Z" transform="translate(-68.49 100.16)" fill="#5ff9f5"/><path d="M134.43,51.52A2.55,2.55,0,0,1,131.88,49V-75.17a2.55,2.55,0,0,1,2.55-2.55A2.55,2.55,0,0,1,137-75.17V48.94a2.55,2.55,0,0,1-2.52,2.58Z" transform="translate(-68.49 100.16)" fill="#5ff9f5"/><path d="M145,65.94a2.55,2.55,0,0,1-2.55-2.55v-153A2.55,2.55,0,0,1,145-92.18a2.55,2.55,0,0,1,2.55,2.55V63.43A2.55,2.55,0,0,1,145,65.94Z" transform="translate(-68.49 100.16)" fill="#5ff9f5"/><path d="M155.56,73.94A2.55,2.55,0,0,1,153,71.39v-169a2.55,2.55,0,0,1,2.55-2.55,2.55,2.55,0,0,1,2.55,2.55v169A2.55,2.55,0,0,1,155.56,73.94Z" transform="translate(-68.49 100.16)" fill="#5ff9f5"/><circle cx="87.24" cy="87.04" r="45.93" fill="#09091e"/><path d="M175.8-39a2.57,2.57,0,0,0-2.87-2.23,2.31,2.31,0,0,0-.52.12L145-31.3a2.58,2.58,0,0,0-1.7,2.4V-3.67A8.13,8.13,0,1,0,147.84,6.9a8.21,8.21,0,0,0,.58-2.77,1.13,1.13,0,0,0,0-.26V-18.3l22.28-8v12.81A8.11,8.11,0,0,0,160.15-9a8.11,8.11,0,0,0,4.52,10.56,8.12,8.12,0,0,0,10.55-4.53,8.1,8.1,0,0,0,.58-2.75,1.13,1.13,0,0,0,0-.26V-38.68A1.41,1.41,0,0,0,175.8-39Zm-5.09,7.3-22.28,8v-3.39l22.28-8Z" transform="translate(-68.49 100.16)" fill="#fff"/></g></g></g></g><g id="babc0f05-807e-4b8f-b2b7-84672fcc8c99" data-name="Layer 2"><path d="M86.85,92.11l-.59,1.41c-.9,2-2.19,3.06-3.85,3.06a3.28,3.28,0,0,1-2.27-.88,2.56,2.56,0,0,1-1-2A6.87,6.87,0,0,1,80,90.83l4.11-8.33c1-2,2.26-3,3.76-3a3.06,3.06,0,0,1,2.07.79,2.48,2.48,0,0,1,.86,1.86,9.53,9.53,0,0,1-.18,1.21,5.44,5.44,0,0,0-.13,1.2,6.88,6.88,0,0,0,1.45,4L93.73,91a12.53,12.53,0,0,1,2.68,7.22,8.39,8.39,0,0,1-2.9,6.5,10.35,10.35,0,0,1-7.21,2.6H79.85c-2.62,0-3.92-.9-3.92-2.71a3.5,3.5,0,0,1,1.39-3,6.23,6.23,0,0,1,3.82-1.06h3.54q4.29,0,4.29-3.12a6.18,6.18,0,0,0-.8-2.68Z" transform="translate(-68.49 100.16)" fill="#fff"/><path d="M112.23,85a12.11,12.11,0,0,1,5.33-1.76,7.18,7.18,0,0,1,4.86,1.65,5.42,5.42,0,0,1,1.9,4.21,9.23,9.23,0,0,1-.74,3.37l-3.24,8.08h3.55c2.59,0,3.88.92,3.88,2.74a3.48,3.48,0,0,1-1.37,2.93,6.16,6.16,0,0,1-3.84,1h-6.2a4.94,4.94,0,0,1-3.32-1.12,3.46,3.46,0,0,1-1.34-2.76,7.62,7.62,0,0,1,.71-2.84l2.84-7a6.22,6.22,0,0,0,.52-2c0-1.17-.78-1.76-2.34-1.76q-3.15,0-5.31,5.37l-3.44,8.5c-1.09,2.7-2.7,4-4.84,4a3,3,0,0,1-2.16-.8,2.46,2.46,0,0,1-.9-1.94,5.62,5.62,0,0,1,.47-2l.33-.83L111,69c1.17-2.83,2.78-4.25,4.81-4.25a3.1,3.1,0,0,1,2.18.85,2.74,2.74,0,0,1,.91,2,9,9,0,0,1-.8,2.93Z" transform="translate(-68.49 100.16)" fill="#fff"/><path d="M150.25,100.56h3.58a5.49,5.49,0,0,1,3,.63,2.39,2.39,0,0,1,.9,2.08,3.55,3.55,0,0,1-1.37,3,6.11,6.11,0,0,1-3.84,1.06H147a3.36,3.36,0,0,1-3.45-2,5.35,5.35,0,0,1-4.26,2h-4.5a6.23,6.23,0,0,1-4.5-1.69,5.59,5.59,0,0,1-1.79-4.29,9.25,9.25,0,0,1,.8-3.46l4.2-10.3q1.75-4.29,4.81-4.29a3.29,3.29,0,0,1,2.25.85,2.76,2.76,0,0,1,.92,2.08,5.76,5.76,0,0,1-.49,2.13l-.34.84-3.24,7.92-.34.93a5.73,5.73,0,0,0-.31,1.2c0,.93.56,1.39,1.79,1.39q3.83,0,5.09-3.09l3.86-9.5q1.72-4.3,4.87-4.31a3.12,3.12,0,0,1,2.22.86,2.78,2.78,0,0,1,.93,2.07,9.39,9.39,0,0,1-.8,3Z" transform="translate(-68.49 100.16)" fill="#fff"/><path d="M175.33,83.67h4.26c2.6,0,3.91.92,3.91,2.74a3.48,3.48,0,0,1-1.37,2.93,6.16,6.16,0,0,1-3.84,1h-5.68l-13.84,34.15c-1.16,2.81-2.76,4.22-4.82,4.22a3.23,3.23,0,0,1-2.28-.83,2.63,2.63,0,0,1-.92-2.07,9.12,9.12,0,0,1,.8-2.93l13.23-32.54h-2.1q-3.93,0-3.91-2.68a3.52,3.52,0,0,1,1.37-3,6.14,6.14,0,0,1,3.84-1h3.51L171.41,74c1.32-3.21,2.9-5.48,4.74-6.83a12.19,12.19,0,0,1,7.38-2h3.52c2.62,0,3.94.91,3.95,2.71a3.65,3.65,0,0,1-1.39,3A6.15,6.15,0,0,1,185.76,72h-.93a7.22,7.22,0,0,0-4.09,1,7.83,7.83,0,0,0-2.51,3.55Z" transform="translate(-68.49 100.16)" fill="#fff"/><path d="M198.68,83.67h4.26c2.61,0,3.92.92,3.92,2.74a3.47,3.47,0,0,1-1.38,2.93,6.1,6.1,0,0,1-3.84,1H196l-13.85,34.15c-1.15,2.81-2.76,4.22-4.81,4.22a3.26,3.26,0,0,1-2.29-.83,2.64,2.64,0,0,1-.92-2.07,9.12,9.12,0,0,1,.8-2.93l13.23-32.54H186c-2.62,0-3.92-.89-3.92-2.68a3.55,3.55,0,0,1,1.37-3,6.2,6.2,0,0,1,3.84-1.06h3.52L194.77,74c1.31-3.21,2.89-5.48,4.73-6.83a12.22,12.22,0,0,1,7.39-2h3.51c2.64,0,4,.9,4,2.71a3.62,3.62,0,0,1-1.39,3A6,6,0,0,1,209.16,72h-.93a7.19,7.19,0,0,0-4.08,1,7.85,7.85,0,0,0-2.52,3.55Z" transform="translate(-68.49 100.16)" fill="#fff"/><path d="M210.62,100.56h3.23c2.62,0,3.92.91,3.92,2.74a3.48,3.48,0,0,1-1.37,2.93,6.16,6.16,0,0,1-3.84,1H207a5.49,5.49,0,0,1-3.61-1.08,3.46,3.46,0,0,1-1.33-2.9,9.83,9.83,0,0,1,.9-3.17l12.46-30.66.34-.84q1.41-3.45,4.53-3.45a3.18,3.18,0,0,1,2.21.86,2.83,2.83,0,0,1,.91,2.07,6,6,0,0,1-.47,2.1l-.34.83Z" transform="translate(-68.49 100.16)" fill="#fff"/><path d="M225.75,98.24c0,1.55,1.17,2.32,3.49,2.32h9.16c2.58,0,3.88.92,3.89,2.74a3.48,3.48,0,0,1-1.37,2.93,6.15,6.15,0,0,1-3.85,1h-8.72c-3.25,0-5.73-.8-7.42-2.4s-2.55-4-2.55-7a14.49,14.49,0,0,1,4-10.27A12.67,12.67,0,0,1,232,83.29a9.67,9.67,0,0,1,6.49,2.12A7,7,0,0,1,240.9,91a6.67,6.67,0,0,1-3.39,6.17,11,11,0,0,1-5.62,1.14Zm1.49-5.61h3.44c2.2,0,3.27-.48,3.21-1.45s-.78-1.63-2.13-1.63c-1.94,0-3.44,1-4.52,3.12Z" transform="translate(-68.49 100.16)" fill="#fff"/><path d="M80.78,106.88c-4.28,0-4.91-2.32-4.91-3.71a4.43,4.43,0,0,1,1.78-3.74,7.12,7.12,0,0,1,4.43-1.27h3.6C89,98.16,89,96.73,89,96a5.29,5.29,0,0,0-.69-2.22l-.39-.77c-1.33,2.57-3.17,3.13-4.52,3.13a4.2,4.2,0,0,1-2.92-1.13,3.56,3.56,0,0,1-1.35-2.77,7.82,7.82,0,0,1,1-3.32l4.1-8.32c1.19-2.36,2.76-3.55,4.66-3.55a4,4,0,0,1,2.74,1,3.52,3.52,0,0,1,1.19,2.6,8,8,0,0,1-.2,1.4,4.86,4.86,0,0,0-.11,1,5.92,5.92,0,0,0,1.27,3.4L95.49,89a13.62,13.62,0,0,1,2.88,7.8A9.39,9.39,0,0,1,95.14,104a11.41,11.41,0,0,1-7.89,2.86Z" transform="translate(-68.49 100.16)" fill="#09091e"/><path d="M100.76,107.31a4.07,4.07,0,0,1-2.83-1,3.48,3.48,0,0,1-1.25-2.74,6.44,6.44,0,0,1,.53-2.4L111,67.23c1.34-3.24,3.27-4.88,5.74-4.88a4,4,0,0,1,2.85,1.11,3.71,3.71,0,0,1,1.23,2.79,9.45,9.45,0,0,1-.88,3.31l-4.89,12a9.72,9.72,0,0,1,3.45-.76,8.21,8.21,0,0,1,5.51,1.9,6.32,6.32,0,0,1,2.24,5,10.2,10.2,0,0,1-.81,3.74l-2.69,6.71h2.07c4.25,0,4.88,2.34,4.88,3.74a4.53,4.53,0,0,1-1.76,3.73,7.13,7.13,0,0,1-4.45,1.25h-6.2a5.93,5.93,0,0,1-4-1.36,4.42,4.42,0,0,1-1.7-3.52,8.61,8.61,0,0,1,.79-3.22l2.84-7a5.07,5.07,0,0,0,.45-1.63c0-.32,0-.76-1.35-.76-1.64,0-3.11,1.6-4.38,4.74l-3.38,8.5C105.28,105.74,103.34,107.31,100.76,107.31Z" transform="translate(-68.49 100.16)" fill="#09091e"/><path d="M148,106.88a4.54,4.54,0,0,1-3.63-1.43,6.22,6.22,0,0,1-4.08,1.43h-4.51a7.24,7.24,0,0,1-5.19-2,6.61,6.61,0,0,1-2.1-5,10.15,10.15,0,0,1,.88-3.83l4.19-10.31c1.34-3.26,3.27-4.91,5.74-4.91a4.28,4.28,0,0,1,2.93,1.11,3.8,3.8,0,0,1,1.25,2.82,6.76,6.76,0,0,1-.57,2.51L139.28,96l-.32.89a4.53,4.53,0,0,0-.26.94V98a1.21,1.21,0,0,0,.77.15c2.15,0,3.47-.78,4.16-2.47l3.86-9.49c1.31-3.28,3.26-4.94,5.8-4.94a4.18,4.18,0,0,1,2.9,1.13,3.8,3.8,0,0,1,1.24,2.8,10,10,0,0,1-.87,3.33l-3.88,9.63h2.1a6.34,6.34,0,0,1,3.59.81,3.35,3.35,0,0,1,1.32,2.9,4.5,4.5,0,0,1-1.76,3.74,7.09,7.09,0,0,1-4.45,1.27Z" transform="translate(-68.49 100.16)" fill="#09091e"/><path d="M154.89,128.38a4.21,4.21,0,0,1-2.95-1.09,3.6,3.6,0,0,1-1.26-2.81,9.78,9.78,0,0,1,.87-3.3L164.23,90h-.61c-4.28,0-4.92-2.31-4.92-3.68a4.5,4.5,0,0,1,1.76-3.77,7.16,7.16,0,0,1,4.45-1.27h2.84l3.67-9c1.38-3.36,3.09-5.81,5.07-7.26a13.33,13.33,0,0,1,8-2.21H188c4.31,0,4.95,2.33,4.95,3.71a4.57,4.57,0,0,1-1.77,3.81,7,7,0,0,1-4.47,1.3h-.93a6.16,6.16,0,0,0-3.51.86,6.89,6.89,0,0,0-2.16,3.11l-2.34,5.72h2.77c4.28,0,4.92,2.34,4.92,3.74a4.47,4.47,0,0,1-1.77,3.73,7.13,7.13,0,0,1-4.45,1.25h-5l-13.56,33.48C159.31,126.75,157.38,128.38,154.89,128.38Z" transform="translate(-68.49 100.16)" fill="#09091e"/><path d="M178.23,128.38a4.22,4.22,0,0,1-2.95-1.09,3.6,3.6,0,0,1-1.26-2.81,9.78,9.78,0,0,1,.87-3.3L187.57,90H187c-4.28,0-4.92-2.31-4.92-3.68a4.5,4.5,0,0,1,1.76-3.77,7.14,7.14,0,0,1,4.46-1.27h2.84l3.66-9c1.38-3.36,3.09-5.81,5.07-7.26a13.33,13.33,0,0,1,8-2.21h3.52c4.3,0,5,2.33,5,3.71a4.58,4.58,0,0,1-1.78,3.81,7,7,0,0,1-4.47,1.3h-.92a6.19,6.19,0,0,0-3.52.86,6.89,6.89,0,0,0-2.16,3.11l-2.33,5.72h2.76c4.28,0,4.92,2.34,4.92,3.74a4.48,4.48,0,0,1-1.76,3.73,7.13,7.13,0,0,1-4.45,1.25h-5L184,123.57C182.68,126.75,180.68,128.38,178.23,128.38Z" transform="translate(-68.49 100.16)" fill="#09091e"/><path d="M207.94,106.88a6.44,6.44,0,0,1-4.24-1.3A4.48,4.48,0,0,1,202,101.9a10.53,10.53,0,0,1,1-3.55l12.81-31.49c1.38-3.37,3.73-4.08,5.46-4.08a4.15,4.15,0,0,1,2.89,1.14,3.79,3.79,0,0,1,1.22,2.79,7.13,7.13,0,0,1-.53,2.46l-11.78,29h1.75c4.28,0,4.92,2.34,4.92,3.74a4.49,4.49,0,0,1-1.77,3.73,7.13,7.13,0,0,1-4.45,1.25Z" transform="translate(-68.49 100.16)" fill="#09091e"/><path d="M229.28,106.88c-3.5,0-6.23-.9-8.11-2.68s-2.85-4.4-2.85-7.76a15.59,15.59,0,0,1,4.29-11,13.67,13.67,0,0,1,10.31-4.64,10.66,10.66,0,0,1,7.14,2.36,8,8,0,0,1,2.8,6.32,7.63,7.63,0,0,1-3.88,7,11.83,11.83,0,0,1-6.12,1.28h-4.57a4.15,4.15,0,0,0,1.88.32h9.16c4.26,0,4.89,2.34,4.89,3.74a4.53,4.53,0,0,1-1.76,3.73A7.13,7.13,0,0,1,238,106.8Zm2.28-16.65c1.88,0,2.22-.38,2.22-.39,0-.33-.05-.69-1.14-.69a3.45,3.45,0,0,0-2.55,1.08Z" transform="translate(-68.49 100.16)" fill="#09091e"/><path d="M80.32,107.58c-4.28,0-4.92-2.32-4.92-3.71a4.46,4.46,0,0,1,1.78-3.74,7.12,7.12,0,0,1,4.43-1.27h3.58c3.29,0,3.29-1.43,3.29-2.12a5.29,5.29,0,0,0-.69-2.22l-.4-.77c-1.33,2.57-3.17,3.13-4.51,3.13A4.29,4.29,0,0,1,80,95.75,3.55,3.55,0,0,1,78.61,93a7.55,7.55,0,0,1,1-3.32l4.1-8.32c1.19-2.36,2.75-3.55,4.66-3.55a4.07,4.07,0,0,1,2.74,1,3.52,3.52,0,0,1,1.19,2.6,8,8,0,0,1-.21,1.4,4.85,4.85,0,0,0-.1,1,5.84,5.84,0,0,0,1.26,3.4L95,89.62a13.61,13.61,0,0,1,2.87,7.8,9.39,9.39,0,0,1-3.23,7.24,11.37,11.37,0,0,1-7.89,2.86Z" transform="translate(-68.49 100.16)" fill="#09091e"/><path d="M100.29,108A4,4,0,0,1,97.47,107a3.47,3.47,0,0,1-1.23-2.69,6.44,6.44,0,0,1,.53-2.4l13.76-33.94c1.34-3.24,3.27-4.88,5.74-4.88a4.16,4.16,0,0,1,2.86,1.11A3.76,3.76,0,0,1,120.36,67a9.5,9.5,0,0,1-.88,3.31l-4.9,12A9.72,9.72,0,0,1,118,81.5a8.16,8.16,0,0,1,5.51,1.9,6.32,6.32,0,0,1,2.24,5,10.2,10.2,0,0,1-.81,3.74l-2.69,6.71h2.07c4.25,0,4.89,2.34,4.89,3.74a4.49,4.49,0,0,1-1.77,3.73,7.12,7.12,0,0,1-4.44,1.25h-6.2a5.93,5.93,0,0,1-4-1.36,4.36,4.36,0,0,1-1.7-3.52,8.42,8.42,0,0,1,.78-3.22l2.84-7a5.07,5.07,0,0,0,.45-1.63c0-.32,0-.76-1.34-.76-1.64,0-3.12,1.6-4.38,4.74L106,103.31C104.81,106.44,102.87,108,100.29,108Z" transform="translate(-68.49 100.16)" fill="#09091e"/><path d="M147.48,107.58a4.54,4.54,0,0,1-3.63-1.43,6.22,6.22,0,0,1-4.08,1.43h-4.5a7.19,7.19,0,0,1-5.19-2,6.56,6.56,0,0,1-2.11-5,10.15,10.15,0,0,1,.88-3.83l4.2-10.31c1.33-3.26,3.26-4.91,5.73-4.91a4.29,4.29,0,0,1,2.9,1.14,3.8,3.8,0,0,1,1.25,2.82,6.76,6.76,0,0,1-.57,2.51l-3.58,8.76-.32.89a3.54,3.54,0,0,0-.25.94.22.22,0,0,0,0,.16,1.21,1.21,0,0,0,.77.15c2.15,0,3.47-.78,4.17-2.47L147,86.94c1.31-3.28,3.26-4.94,5.8-4.94a4.18,4.18,0,0,1,2.9,1.13,3.74,3.74,0,0,1,1.25,2.8,10,10,0,0,1-.88,3.33l-3.91,9.61h2.09a6.39,6.39,0,0,1,3.6.81,3.39,3.39,0,0,1,1.32,2.9,4.52,4.52,0,0,1-1.76,3.74,7.12,7.12,0,0,1-4.46,1.27Z" transform="translate(-68.49 100.16)" fill="#09091e"/><path d="M154.42,129.08a4.21,4.21,0,0,1-2.95-1.09,3.67,3.67,0,0,1-1.26-2.81,9.78,9.78,0,0,1,.87-3.3l12.68-31.21h-.61c-4.28,0-4.92-2.31-4.92-3.68A4.5,4.5,0,0,1,160,83.22,7.16,7.16,0,0,1,164.44,82h2.85L171,73c1.38-3.36,3.09-5.81,5.07-7.26a13.33,13.33,0,0,1,8-2.21h3.52c4.3,0,4.94,2.33,4.94,3.71A4.57,4.57,0,0,1,190.71,71a7,7,0,0,1-4.47,1.3h-.92a6.19,6.19,0,0,0-3.52.86,6.89,6.89,0,0,0-2.16,3.11L177.31,82h2.76c4.28,0,4.92,2.34,4.92,3.74a4.47,4.47,0,0,1-1.77,3.73,7.12,7.12,0,0,1-4.44,1.25h-5l-13.59,33.52C158.84,127.45,156.91,129.08,154.42,129.08Z" transform="translate(-68.49 100.16)" fill="#09091e"/><path d="M177.76,129.08a4.22,4.22,0,0,1-2.95-1.09,3.59,3.59,0,0,1-1.25-2.81,9.55,9.55,0,0,1,.87-3.3L187.1,90.67h-.61c-4.28,0-4.91-2.31-4.91-3.68a4.5,4.5,0,0,1,1.76-3.77A7.1,7.1,0,0,1,187.79,82h2.89l3.67-9c1.38-3.36,3.08-5.81,5.07-7.26a13.26,13.26,0,0,1,8-2.21h3.52c4.31,0,4.95,2.33,4.95,3.71A4.57,4.57,0,0,1,214.12,71a7.09,7.09,0,0,1-4.47,1.3h-1a6.16,6.16,0,0,0-3.51.86A6.91,6.91,0,0,0,203,76.27L200.68,82h2.77c4.27,0,4.91,2.34,4.91,3.74a4.48,4.48,0,0,1-1.76,3.73,7.13,7.13,0,0,1-4.45,1.25h-5l-13.6,33.52C182.19,127.45,180.25,129.08,177.76,129.08Z" transform="translate(-68.49 100.16)" fill="#09091e"/><path d="M207.47,107.58a6.46,6.46,0,0,1-4.24-1.3,4.48,4.48,0,0,1-1.69-3.68,10.53,10.53,0,0,1,1-3.55l12.8-31.49c1.38-3.37,3.73-4.08,5.46-4.08a4.08,4.08,0,0,1,2.88,1.19,3.79,3.79,0,0,1,1.22,2.79,7.13,7.13,0,0,1-.53,2.46l-11.78,29h1.75c4.28,0,4.92,2.34,4.92,3.74a4.49,4.49,0,0,1-1.77,3.73,7.12,7.12,0,0,1-4.44,1.25Z" transform="translate(-68.49 100.16)" fill="#09091e"/><path d="M228.81,107.58c-3.5,0-6.22-.9-8.1-2.68s-2.86-4.4-2.86-7.76a15.54,15.54,0,0,1,4.29-11,13.67,13.67,0,0,1,10.31-4.64,10.66,10.66,0,0,1,7.15,2.36,8,8,0,0,1,2.8,6.32,7.63,7.63,0,0,1-3.89,7,11.73,11.73,0,0,1-6.12,1.28h-4.56a3.9,3.9,0,0,0,1.88.32h9.16c4.25,0,4.88,2.34,4.88,3.74A4.53,4.53,0,0,1,242,106.3a7.13,7.13,0,0,1-4.45,1.25Zm2.28-16.65c1.88,0,2.22-.38,2.23-.39,0-.33,0-.69-1.15-.69a3.44,3.44,0,0,0-2.54,1.08Z" transform="translate(-68.49 100.16)" fill="#09091e"/><path d="M79.85,108.28c-4.28,0-4.92-2.32-4.92-3.71a4.46,4.46,0,0,1,1.78-3.74,7.12,7.12,0,0,1,4.43-1.27h3.54C88,99.56,88,98.13,88,97.44a5.29,5.29,0,0,0-.69-2.22l-.39-.77c-1.34,2.57-3.17,3.13-4.52,3.13a4.29,4.29,0,0,1-2.93-1.13,3.55,3.55,0,0,1-1.34-2.77,7.82,7.82,0,0,1,1-3.32L83.2,82c1.19-2.36,2.76-3.55,4.66-3.55a4,4,0,0,1,2.74,1.05,3.52,3.52,0,0,1,1.19,2.6,8,8,0,0,1-.2,1.4,4.86,4.86,0,0,0-.11,1,5.92,5.92,0,0,0,1.27,3.4l1.75,2.43a13.54,13.54,0,0,1,2.87,7.8,9.36,9.36,0,0,1-3.23,7.24,11.33,11.33,0,0,1-7.88,2.86Z" transform="translate(-68.49 100.16)" fill="#09091e"/><path d="M99.83,108.67a4.07,4.07,0,0,1-2.83-1A3.47,3.47,0,0,1,95.77,105a6.45,6.45,0,0,1,.54-2.4l13.76-33.91c1.33-3.24,3.26-4.88,5.73-4.88a4.16,4.16,0,0,1,2.86,1.11,3.71,3.71,0,0,1,1.23,2.79A9.5,9.5,0,0,1,119,71l-4.89,12a9.62,9.62,0,0,1,3.44-.76,8.18,8.18,0,0,1,5.52,1.9,6.35,6.35,0,0,1,2.24,5,10,10,0,0,1-.82,3.74l-2.68,6.71h2.07c4.25,0,4.88,2.34,4.88,3.74a4.53,4.53,0,0,1-1.76,3.73,7.13,7.13,0,0,1-4.45,1.25h-6.2a5.93,5.93,0,0,1-4-1.36,4.36,4.36,0,0,1-1.7-3.52,8.61,8.61,0,0,1,.79-3.22l2.83-7a5.07,5.07,0,0,0,.45-1.63c0-.32,0-.76-1.34-.76-1.64,0-3.11,1.6-4.38,4.74l-3.45,8.49C104.34,107.14,102.4,108.67,99.83,108.67Z" transform="translate(-68.49 100.16)" fill="#09091e"/><path d="M147,108.28a4.53,4.53,0,0,1-3.62-1.43,6.23,6.23,0,0,1-4.09,1.43h-4.5a7.24,7.24,0,0,1-5.19-2,6.61,6.61,0,0,1-2.1-5,10.33,10.33,0,0,1,.87-3.83l4.2-10.31c1.34-3.26,3.27-4.91,5.74-4.91a4.28,4.28,0,0,1,2.92,1.11,3.8,3.8,0,0,1,1.25,2.82,7,7,0,0,1-.56,2.51l-3.58,8.76-.33.89a4.5,4.5,0,0,0-.25.94v.16a1.18,1.18,0,0,0,.76.15c2.16,0,3.48-.78,4.17-2.47l3.88-9.43c1.31-3.28,3.27-4.94,5.8-4.94a4.19,4.19,0,0,1,2.91,1.13,3.8,3.8,0,0,1,1.24,2.8,10.06,10.06,0,0,1-.87,3.33l-3.92,9.61h2.09a6.39,6.39,0,0,1,3.6.81,3.39,3.39,0,0,1,1.32,2.9,4.5,4.5,0,0,1-1.76,3.74,7.09,7.09,0,0,1-4.45,1.27Z" transform="translate(-68.49 100.16)" fill="#09091e"/><path d="M154,129.78a4.22,4.22,0,0,1-2.95-1.09,3.64,3.64,0,0,1-1.25-2.81,9.55,9.55,0,0,1,.87-3.3l12.67-31.17h-.61c-4.28,0-4.91-2.31-4.91-3.68A4.55,4.55,0,0,1,159.52,84,7.16,7.16,0,0,1,164,82.67h2.84l3.66-9c1.39-3.36,3.09-5.81,5.08-7.26a13.26,13.26,0,0,1,8-2.21h3.52c4.3,0,4.95,2.33,4.95,3.71a4.58,4.58,0,0,1-1.78,3.81,7,7,0,0,1-4.46,1.3h-.93a6.16,6.16,0,0,0-3.51.86A6.91,6.91,0,0,0,179.18,77l-2.36,5.68h2.77c4.27,0,4.91,2.34,4.91,3.74a4.48,4.48,0,0,1-1.76,3.73,7.13,7.13,0,0,1-4.45,1.25h-5l-13.61,33.54C158.38,128.15,156.44,129.78,154,129.78Z" transform="translate(-68.49 100.16)" fill="#09091e"/><path d="M177.3,129.78a4.21,4.21,0,0,1-3-1.09,3.6,3.6,0,0,1-1.26-2.81,9.78,9.78,0,0,1,.87-3.3l12.72-31.17h-.61c-4.28,0-4.92-2.31-4.92-3.68A4.5,4.5,0,0,1,182.91,84a7.16,7.16,0,0,1,4.45-1.27h2.84l3.67-9c1.38-3.36,3.09-5.81,5.07-7.26a13.33,13.33,0,0,1,8-2.21h3.51c4.31,0,5,2.33,5,3.71a4.57,4.57,0,0,1-1.77,3.81,7,7,0,0,1-4.47,1.3h-.93a6.16,6.16,0,0,0-3.51.86A6.89,6.89,0,0,0,202.61,77l-2.45,5.66h2.77c4.28,0,4.92,2.34,4.92,3.74a4.47,4.47,0,0,1-1.77,3.73,7.13,7.13,0,0,1-4.45,1.25h-5L183,124.91C181.68,128.15,179.79,129.78,177.3,129.78Z" transform="translate(-68.49 100.16)" fill="#09091e"/><path d="M207,108.28a6.44,6.44,0,0,1-4.24-1.3,4.48,4.48,0,0,1-1.7-3.68,10.53,10.53,0,0,1,1-3.55l12.8-31.49c1.39-3.37,3.73-4.08,5.46-4.08a4.07,4.07,0,0,1,2.9,1.14,3.79,3.79,0,0,1,1.22,2.79,6.87,6.87,0,0,1-.54,2.46l-11.78,29h1.75c4.28,0,4.92,2.34,4.92,3.74A4.53,4.53,0,0,1,217,107a7.13,7.13,0,0,1-4.45,1.25Z" transform="translate(-68.49 100.16)" fill="#09091e"/><path d="M228.35,108.28c-3.5,0-6.23-.9-8.11-2.68s-2.86-4.4-2.86-7.76a15.55,15.55,0,0,1,4.3-11A13.67,13.67,0,0,1,232,82.25a10.66,10.66,0,0,1,7.14,2.36,8,8,0,0,1,2.8,6.32,7.63,7.63,0,0,1-3.88,7,11.76,11.76,0,0,1-6.13,1.28h-4.56a3.9,3.9,0,0,0,1.88.32h9.16c4.25,0,4.89,2.34,4.89,3.74a4.49,4.49,0,0,1-1.77,3.73,7.13,7.13,0,0,1-4.45,1.25Zm2.33-16.61c1.87,0,2.22-.38,2.22-.39,0-.33-.05-.69-1.14-.69a3.45,3.45,0,0,0-2.55,1.08Z" transform="translate(-68.49 100.16)" fill="#09091e"/><path d="M86.85,92.11l-.59,1.41c-.9,2-2.19,3.06-3.85,3.06a3.28,3.28,0,0,1-2.27-.88,2.56,2.56,0,0,1-1-2A6.87,6.87,0,0,1,80,90.83l4.11-8.33c1-2,2.26-3,3.76-3a3.06,3.06,0,0,1,2.07.79,2.48,2.48,0,0,1,.86,1.86,9.53,9.53,0,0,1-.18,1.21,5.44,5.44,0,0,0-.13,1.2,6.88,6.88,0,0,0,1.45,4L93.73,91a12.53,12.53,0,0,1,2.68,7.22,8.39,8.39,0,0,1-2.9,6.5,10.35,10.35,0,0,1-7.21,2.6H79.85c-2.62,0-3.92-.9-3.92-2.71a3.5,3.5,0,0,1,1.39-3,6.23,6.23,0,0,1,3.82-1.06h3.54q4.29,0,4.29-3.12a6.18,6.18,0,0,0-.8-2.68Z" transform="translate(-68.49 100.16)" fill="#5ff9f5"/><path d="M112.23,85a12.11,12.11,0,0,1,5.33-1.76,7.18,7.18,0,0,1,4.86,1.65,5.42,5.42,0,0,1,1.9,4.21,9.23,9.23,0,0,1-.74,3.37l-3.24,8.08h3.55c2.59,0,3.88.92,3.88,2.74a3.48,3.48,0,0,1-1.37,2.93,6.16,6.16,0,0,1-3.84,1h-6.2a4.94,4.94,0,0,1-3.32-1.12,3.46,3.46,0,0,1-1.34-2.76,7.62,7.62,0,0,1,.71-2.84l2.84-7a6.22,6.22,0,0,0,.52-2c0-1.17-.78-1.76-2.34-1.76q-3.15,0-5.31,5.37l-3.44,8.5c-1.09,2.7-2.7,4-4.84,4a3,3,0,0,1-2.16-.8,2.46,2.46,0,0,1-.9-1.94,5.62,5.62,0,0,1,.47-2l.33-.83L111,69c1.17-2.83,2.78-4.25,4.81-4.25a3.1,3.1,0,0,1,2.18.85,2.74,2.74,0,0,1,.91,2,9,9,0,0,1-.8,2.93Z" transform="translate(-68.49 100.16)" fill="#5ff9f5"/><path d="M150.25,100.56h3.58a5.49,5.49,0,0,1,3,.63,2.39,2.39,0,0,1,.9,2.08,3.55,3.55,0,0,1-1.37,3,6.11,6.11,0,0,1-3.84,1.06H147a3.36,3.36,0,0,1-3.45-2,5.35,5.35,0,0,1-4.26,2h-4.5a6.23,6.23,0,0,1-4.5-1.69,5.59,5.59,0,0,1-1.79-4.29,9.25,9.25,0,0,1,.8-3.46l4.2-10.3q1.75-4.29,4.81-4.29a3.29,3.29,0,0,1,2.25.85,2.76,2.76,0,0,1,.92,2.08,5.76,5.76,0,0,1-.49,2.13l-.34.84-3.24,7.92-.34.93a5.73,5.73,0,0,0-.31,1.2c0,.93.56,1.39,1.79,1.39q3.83,0,5.09-3.09l3.86-9.5q1.72-4.3,4.87-4.31a3.12,3.12,0,0,1,2.22.86,2.78,2.78,0,0,1,.93,2.07,9.39,9.39,0,0,1-.8,3Z" transform="translate(-68.49 100.16)" fill="#5ff9f5"/><path d="M175.33,83.67h4.26c2.6,0,3.91.92,3.91,2.74a3.48,3.48,0,0,1-1.37,2.93,6.16,6.16,0,0,1-3.84,1h-5.68l-13.84,34.15c-1.16,2.81-2.76,4.22-4.82,4.22a3.23,3.23,0,0,1-2.28-.83,2.63,2.63,0,0,1-.92-2.07,9.12,9.12,0,0,1,.8-2.93l13.23-32.54h-2.1q-3.93,0-3.91-2.68a3.52,3.52,0,0,1,1.37-3,6.14,6.14,0,0,1,3.84-1h3.51L171.41,74c1.32-3.21,2.9-5.48,4.74-6.83a12.19,12.19,0,0,1,7.38-2h3.52c2.62,0,3.94.91,3.95,2.71a3.65,3.65,0,0,1-1.39,3A6.15,6.15,0,0,1,185.76,72h-.93a7.22,7.22,0,0,0-4.09,1,7.83,7.83,0,0,0-2.51,3.55Z" transform="translate(-68.49 100.16)" fill="#5ff9f5"/><path d="M198.68,83.67h4.26c2.61,0,3.92.92,3.92,2.74a3.47,3.47,0,0,1-1.38,2.93,6.1,6.1,0,0,1-3.84,1H196l-13.85,34.15c-1.15,2.81-2.76,4.22-4.81,4.22a3.26,3.26,0,0,1-2.29-.83,2.64,2.64,0,0,1-.92-2.07,9.12,9.12,0,0,1,.8-2.93l13.23-32.54H186c-2.62,0-3.92-.89-3.92-2.68a3.55,3.55,0,0,1,1.37-3,6.2,6.2,0,0,1,3.84-1.06h3.52L194.77,74c1.31-3.21,2.89-5.48,4.73-6.83a12.22,12.22,0,0,1,7.39-2h3.51c2.64,0,4,.9,4,2.71a3.62,3.62,0,0,1-1.39,3A6,6,0,0,1,209.16,72h-.93a7.19,7.19,0,0,0-4.08,1,7.85,7.85,0,0,0-2.52,3.55Z" transform="translate(-68.49 100.16)" fill="#5ff9f5"/><path d="M210.62,100.56h3.23c2.62,0,3.92.91,3.92,2.74a3.48,3.48,0,0,1-1.37,2.93,6.16,6.16,0,0,1-3.84,1H207a5.49,5.49,0,0,1-3.61-1.08,3.46,3.46,0,0,1-1.33-2.9,9.83,9.83,0,0,1,.9-3.17l12.46-30.66.34-.84q1.41-3.45,4.53-3.45a3.18,3.18,0,0,1,2.21.86,2.83,2.83,0,0,1,.91,2.07,6,6,0,0,1-.47,2.1l-.34.83Z" transform="translate(-68.49 100.16)" fill="#5ff9f5"/><path d="M225.75,98.24c0,1.55,1.17,2.32,3.49,2.32h9.16c2.58,0,3.88.92,3.89,2.74a3.48,3.48,0,0,1-1.37,2.93,6.15,6.15,0,0,1-3.85,1h-8.72c-3.25,0-5.73-.8-7.42-2.4s-2.55-4-2.55-7a14.49,14.49,0,0,1,4-10.27A12.67,12.67,0,0,1,232,83.29a9.67,9.67,0,0,1,6.49,2.12A7,7,0,0,1,240.9,91a6.67,6.67,0,0,1-3.39,6.17,11,11,0,0,1-5.62,1.14Zm1.49-5.61h3.44c2.2,0,3.27-.48,3.21-1.45s-.78-1.63-2.13-1.63c-1.94,0-3.44,1-4.52,3.12Z" transform="translate(-68.49 100.16)" fill="#5ff9f5"/><g opacity="0.5"><path d="M86.85,92.11l-.59,1.41c-.9,2-2.19,3.06-3.85,3.06a3.28,3.28,0,0,1-2.27-.88,2.56,2.56,0,0,1-1-2A6.87,6.87,0,0,1,80,90.83l4.11-8.33c1-2,2.26-3,3.76-3a3.06,3.06,0,0,1,2.07.79,2.48,2.48,0,0,1,.86,1.86,9.53,9.53,0,0,1-.18,1.21,5.44,5.44,0,0,0-.13,1.2,6.88,6.88,0,0,0,1.45,4L93.73,91a12.53,12.53,0,0,1,2.68,7.22,8.39,8.39,0,0,1-2.9,6.5,10.35,10.35,0,0,1-7.21,2.6H79.85c-2.62,0-3.92-.9-3.92-2.71a3.5,3.5,0,0,1,1.39-3,6.23,6.23,0,0,1,3.82-1.06h3.54q4.29,0,4.29-3.12a6.18,6.18,0,0,0-.8-2.68Z" transform="translate(-68.49 100.16)" fill="#5ff9f5"/><path d="M112.23,85a12.11,12.11,0,0,1,5.33-1.76,7.18,7.18,0,0,1,4.86,1.65,5.42,5.42,0,0,1,1.9,4.21,9.23,9.23,0,0,1-.74,3.37l-3.24,8.08h3.55c2.59,0,3.88.92,3.88,2.74a3.48,3.48,0,0,1-1.37,2.93,6.16,6.16,0,0,1-3.84,1h-6.2a4.94,4.94,0,0,1-3.32-1.12,3.46,3.46,0,0,1-1.34-2.76,7.62,7.62,0,0,1,.71-2.84l2.84-7a6.22,6.22,0,0,0,.52-2c0-1.17-.78-1.76-2.34-1.76q-3.15,0-5.31,5.37l-3.44,8.5c-1.09,2.7-2.7,4-4.84,4a3,3,0,0,1-2.16-.8,2.46,2.46,0,0,1-.9-1.94,5.62,5.62,0,0,1,.47-2l.33-.83L111,69c1.17-2.83,2.78-4.25,4.81-4.25a3.1,3.1,0,0,1,2.18.85,2.74,2.74,0,0,1,.91,2,9,9,0,0,1-.8,2.93Z" transform="translate(-68.49 100.16)" fill="#5ff9f5"/><path d="M150.25,100.56h3.58a5.49,5.49,0,0,1,3,.63,2.39,2.39,0,0,1,.9,2.08,3.55,3.55,0,0,1-1.37,3,6.11,6.11,0,0,1-3.84,1.06H147a3.36,3.36,0,0,1-3.45-2,5.35,5.35,0,0,1-4.26,2h-4.5a6.23,6.23,0,0,1-4.5-1.69,5.59,5.59,0,0,1-1.79-4.29,9.25,9.25,0,0,1,.8-3.46l4.2-10.3q1.75-4.29,4.81-4.29a3.29,3.29,0,0,1,2.25.85,2.76,2.76,0,0,1,.92,2.08,5.76,5.76,0,0,1-.49,2.13l-.34.84-3.24,7.92-.34.93a5.73,5.73,0,0,0-.31,1.2c0,.93.56,1.39,1.79,1.39q3.83,0,5.09-3.09l3.86-9.5q1.72-4.3,4.87-4.31a3.12,3.12,0,0,1,2.22.86,2.78,2.78,0,0,1,.93,2.07,9.39,9.39,0,0,1-.8,3Z" transform="translate(-68.49 100.16)" fill="#5ff9f5"/><path d="M175.33,83.67h4.26c2.6,0,3.91.92,3.91,2.74a3.48,3.48,0,0,1-1.37,2.93,6.16,6.16,0,0,1-3.84,1h-5.68l-13.84,34.15c-1.16,2.81-2.76,4.22-4.82,4.22a3.23,3.23,0,0,1-2.28-.83,2.63,2.63,0,0,1-.92-2.07,9.12,9.12,0,0,1,.8-2.93l13.23-32.54h-2.1q-3.93,0-3.91-2.68a3.52,3.52,0,0,1,1.37-3,6.14,6.14,0,0,1,3.84-1h3.51L171.41,74c1.32-3.21,2.9-5.48,4.74-6.83a12.19,12.19,0,0,1,7.38-2h3.52c2.62,0,3.94.91,3.95,2.71a3.65,3.65,0,0,1-1.39,3A6.15,6.15,0,0,1,185.76,72h-.93a7.22,7.22,0,0,0-4.09,1,7.83,7.83,0,0,0-2.51,3.55Z" transform="translate(-68.49 100.16)" fill="#5ff9f5"/><path d="M198.68,83.67h4.26c2.61,0,3.92.92,3.92,2.74a3.47,3.47,0,0,1-1.38,2.93,6.1,6.1,0,0,1-3.84,1H196l-13.85,34.15c-1.15,2.81-2.76,4.22-4.81,4.22a3.26,3.26,0,0,1-2.29-.83,2.64,2.64,0,0,1-.92-2.07,9.12,9.12,0,0,1,.8-2.93l13.23-32.54H186c-2.62,0-3.92-.89-3.92-2.68a3.55,3.55,0,0,1,1.37-3,6.2,6.2,0,0,1,3.84-1.06h3.52L194.77,74c1.31-3.21,2.89-5.48,4.73-6.83a12.22,12.22,0,0,1,7.39-2h3.51c2.64,0,4,.9,4,2.71a3.62,3.62,0,0,1-1.39,3A6,6,0,0,1,209.16,72h-.93a7.19,7.19,0,0,0-4.08,1,7.85,7.85,0,0,0-2.52,3.55Z" transform="translate(-68.49 100.16)" fill="#5ff9f5"/><path d="M210.62,100.56h3.23c2.62,0,3.92.91,3.92,2.74a3.48,3.48,0,0,1-1.37,2.93,6.16,6.16,0,0,1-3.84,1H207a5.49,5.49,0,0,1-3.61-1.08,3.46,3.46,0,0,1-1.33-2.9,9.83,9.83,0,0,1,.9-3.17l12.46-30.66.34-.84q1.41-3.45,4.53-3.45a3.18,3.18,0,0,1,2.21.86,2.83,2.83,0,0,1,.91,2.07,6,6,0,0,1-.47,2.1l-.34.83Z" transform="translate(-68.49 100.16)" fill="#5ff9f5"/><path d="M225.75,98.24c0,1.55,1.17,2.32,3.49,2.32h9.16c2.58,0,3.88.92,3.89,2.74a3.48,3.48,0,0,1-1.37,2.93,6.15,6.15,0,0,1-3.85,1h-8.72c-3.25,0-5.73-.8-7.42-2.4s-2.55-4-2.55-7a14.49,14.49,0,0,1,4-10.27A12.67,12.67,0,0,1,232,83.29a9.67,9.67,0,0,1,6.49,2.12A7,7,0,0,1,240.9,91a6.67,6.67,0,0,1-3.39,6.17,11,11,0,0,1-5.62,1.14Zm1.49-5.61h3.44c2.2,0,3.27-.48,3.21-1.45s-.78-1.63-2.13-1.63c-1.94,0-3.44,1-4.52,3.12Z" transform="translate(-68.49 100.16)" fill="#5ff9f5"/></g></g></svg>