<svg id="b0c8be42-85f7-421b-8e55-b48e42dfc569" data-name="PRINT" xmlns="http://www.w3.org/2000/svg" viewBox="0 0 25.06 25.03"><title>suffer-logo-icon</title><g id="b31c2c43-99ed-4f6c-a39c-f30d1dd3b902" data-name="CUSTOM-group"><g id="b4467cf0-9732-4e0c-b3f3-9e2a77092b68" data-name="CUSTOM-group"><path d="M262.09,242.77a.37.37,0,0,1-.37-.37v-2.35a.37.37,0,1,1,.73,0v2.35A.37.37,0,0,1,262.09,242.77Z" transform="translate(-237.39 -228.71)" fill="#5ff9f5"/><path d="M260.57,245.16a.36.36,0,0,1-.37-.37v-7.13a.37.37,0,1,1,.73,0v7.13a.36.36,0,0,1-.36.37Z" transform="translate(-237.39 -228.71)" fill="#5ff9f5"/><path d="M259.05,244.36a.37.37,0,0,1-.37-.36v-5.54a.37.37,0,1,1,.74,0V244A.37.37,0,0,1,259.05,244.36Z" transform="translate(-237.39 -228.71)" fill="#5ff9f5"/><path d="M257.53,246.82a.37.37,0,0,1-.37-.36V236a.37.37,0,0,1,.74,0v10.47a.37.37,0,0,1-.37.36Z" transform="translate(-237.39 -228.71)" fill="#5ff9f5"/><path d="M256,248.31a.38.38,0,0,1-.37-.37V234.51a.37.37,0,0,1,.74,0v13.43A.38.38,0,0,1,256,248.31Z" transform="translate(-237.39 -228.71)" fill="#5ff9f5"/><path d="M254.49,251.52a.37.37,0,0,1-.36-.37V231.3a.37.37,0,0,1,.36-.37.38.38,0,0,1,.37.37v19.85A.38.38,0,0,1,254.49,251.52Z" transform="translate(-237.39 -228.71)" fill="#5ff9f5"/><path d="M253,250.52a.37.37,0,0,1-.36-.37V232.3a.37.37,0,1,1,.73,0v17.85A.37.37,0,0,1,253,250.52Z" transform="translate(-237.39 -228.71)" fill="#5ff9f5"/><path d="M251.45,252.59a.36.36,0,0,1-.36-.36v-22a.37.37,0,0,1,.73,0v22A.36.36,0,0,1,251.45,252.59Z" transform="translate(-237.39 -228.71)" fill="#5ff9f5"/><path d="M237.76,242.77a.38.38,0,0,1-.37-.37v-2.35a.37.37,0,0,1,.74,0v2.35A.38.38,0,0,1,237.76,242.77Z" transform="translate(-237.39 -228.71)" fill="#5ff9f5"/><path d="M239.28,245.16a.37.37,0,0,1-.37-.37v-7.13a.37.37,0,0,1,.74,0v7.13a.37.37,0,0,1-.37.37Z" transform="translate(-237.39 -228.71)" fill="#5ff9f5"/><path d="M240.8,244.36a.37.37,0,0,1-.37-.36v-5.54a.37.37,0,0,1,.37-.37.36.36,0,0,1,.36.37V244A.36.36,0,0,1,240.8,244.36Z" transform="translate(-237.39 -228.71)" fill="#5ff9f5"/><path d="M242.32,246.82a.36.36,0,0,1-.37-.36V236a.37.37,0,0,1,.73,0v10.47a.36.36,0,0,1-.36.36Z" transform="translate(-237.39 -228.71)" fill="#5ff9f5"/><path d="M243.84,248.31a.37.37,0,0,1-.37-.37V234.51a.37.37,0,1,1,.73,0v13.43A.37.37,0,0,1,243.84,248.31Z" transform="translate(-237.39 -228.71)" fill="#5ff9f5"/><path d="M245.35,251.52a.37.37,0,0,1-.36-.37V231.3a.37.37,0,1,1,.73,0v19.85A.37.37,0,0,1,245.35,251.52Z" transform="translate(-237.39 -228.71)" fill="#5ff9f5"/><path d="M246.87,250.52a.37.37,0,0,1-.36-.37V232.3a.37.37,0,1,1,.73,0v17.85A.37.37,0,0,1,246.87,250.52Z" transform="translate(-237.39 -228.71)" fill="#5ff9f5"/><path d="M248.39,252.59a.36.36,0,0,1-.36-.36v-22a.36.36,0,0,1,.36-.36.37.37,0,0,1,.37.36v22A.37.37,0,0,1,248.39,252.59Z" transform="translate(-237.39 -228.71)" fill="#5ff9f5"/><path d="M249.91,253.74a.37.37,0,0,1-.37-.36V229.07a.37.37,0,0,1,.74,0v24.31A.37.37,0,0,1,249.91,253.74Z" transform="translate(-237.39 -228.71)" fill="#5ff9f5"/><circle cx="249.94" cy="241.23" r="6.6" transform="translate(-240.56 -225.38) rotate(-0.76)" fill="#09091e"/><path d="M252.82,237.51a.38.38,0,0,0-.49-.31l-3.93,1.41a.36.36,0,0,0-.25.34v3.63a1.22,1.22,0,0,0-.43-.08,1.17,1.17,0,1,0,1.16,1.2s0,0,0,0v-3.18l3.2-1.15v1.84a1.23,1.23,0,0,0-.44-.08,1.17,1.17,0,1,0,1.17,1.21v-4.79Zm-.73,1.05-3.2,1.14v-.49l3.2-1.14Z" transform="translate(-237.39 -228.71)" fill="#fff"/></g></g></svg>