<svg xmlns="http://www.w3.org/2000/svg" xmlns:xlink="http://www.w3.org/1999/xlink" viewBox="0 0 19.93 7.5"><defs><linearGradient id="ffe2669c-f9f9-4175-828a-3054fbc9bddb" x1="263.66" y1="309.71" x2="263.66" y2="317.1" gradientUnits="userSpaceOnUse"><stop offset="0" stop-color="#edeaf5"/><stop offset="0.5" stop-color="#b9c1d5"/><stop offset="0.5" stop-color="#f6f6fa"/><stop offset="1" stop-color="#fff"/></linearGradient></defs><title>suffer logo whole</title><g style="isolation:isolate"><g id="f886a45d-de12-4175-9632-fb294b28153f" data-name="PRINT"><path d="M255.08,313.13l-.07.16a.48.48,0,0,1-.43.34.42.42,0,0,1-.25-.1.31.31,0,0,1-.11-.23.75.75,0,0,1,.1-.32l.46-.92c.11-.22.25-.34.41-.34a.32.32,0,0,1,.23.09.26.26,0,0,1,.1.21s0,.06,0,.13a.71.71,0,0,0,0,.14.75.75,0,0,0,.16.44l.19.27a1.4,1.4,0,0,1,.3.8,1,1,0,0,1-.32.73,1.17,1.17,0,0,1-.8.29h-.72c-.29,0-.44-.1-.44-.3a.38.38,0,0,1,.16-.33.66.66,0,0,1,.42-.12h.4c.32,0,.48-.12.48-.35a.71.71,0,0,0-.09-.3Z" transform="translate(-253.75 -309.82)" fill="#fff"/><path d="M258.1,312.34a1.36,1.36,0,0,1,.59-.2.76.76,0,0,1,.54.19.57.57,0,0,1,.22.47,1,1,0,0,1-.09.37l-.36.9h.4c.29,0,.43.1.43.31a.39.39,0,0,1-.15.32.69.69,0,0,1-.43.12h-.69a.52.52,0,0,1-.37-.13.37.37,0,0,1-.15-.31.94.94,0,0,1,.08-.31l.32-.78a.55.55,0,0,0,.05-.22c0-.13-.08-.2-.26-.2s-.43.2-.59.6l-.38.95q-.18.45-.54.45a.36.36,0,0,1-.24-.09.28.28,0,0,1-.1-.22.8.8,0,0,1,.05-.23l0-.09,1.49-3.68q.19-.48.54-.48a.37.37,0,0,1,.24.1.29.29,0,0,1,.1.23.92.92,0,0,1-.09.32Z" transform="translate(-253.75 -309.82)" fill="#fff"/><path d="M262.52,314.07h.39a.59.59,0,0,1,.34.07.25.25,0,0,1,.1.23.4.4,0,0,1-.15.33.71.71,0,0,1-.43.12h-.61a.38.38,0,0,1-.39-.23.6.6,0,0,1-.47.23h-.5a.75.75,0,0,1-.51-.19.66.66,0,0,1-.2-.48,1.22,1.22,0,0,1,.09-.38l.47-1.15q.19-.48.54-.48a.33.33,0,0,1,.25.1.29.29,0,0,1,.1.23.79.79,0,0,1-.05.24l0,.09-.36.88,0,.1c0,.06,0,.11,0,.14s.07.15.2.15a.54.54,0,0,0,.57-.34l.43-1.06q.19-.48.54-.48a.33.33,0,0,1,.25.1.29.29,0,0,1,.1.23,1,1,0,0,1-.09.33Z" transform="translate(-253.75 -309.82)" fill="#fff"/><path d="M265.49,312.19H266c.29,0,.43.1.43.31a.37.37,0,0,1-.15.32.67.67,0,0,1-.43.12h-.63l-1.54,3.8c-.13.31-.31.47-.53.47a.37.37,0,0,1-.26-.09.29.29,0,0,1-.1-.23,1,1,0,0,1,.09-.33l1.47-3.62h-.23c-.29,0-.44-.1-.44-.3a.4.4,0,0,1,.15-.33.71.71,0,0,1,.43-.12h.39l.44-1.07a1.69,1.69,0,0,1,.52-.76,1.38,1.38,0,0,1,.83-.23h.39c.29,0,.44.1.44.3a.39.39,0,0,1-.16.34.67.67,0,0,1-.43.12h-.1a.75.75,0,0,0-.45.12.81.81,0,0,0-.28.39Z" transform="translate(-253.75 -309.82)" fill="#fff"/><path d="M268.23,312.19h.48c.29,0,.43.1.43.31a.37.37,0,0,1-.15.32.67.67,0,0,1-.43.12h-.63l-1.54,3.8c-.13.31-.31.47-.54.47a.37.37,0,0,1-.25-.09.29.29,0,0,1-.1-.23,1,1,0,0,1,.09-.33l1.47-3.62h-.23c-.3,0-.44-.1-.44-.3a.4.4,0,0,1,.15-.33.69.69,0,0,1,.43-.12h.39l.44-1.07a1.69,1.69,0,0,1,.52-.76,1.38,1.38,0,0,1,.83-.23h.39c.29,0,.44.1.44.3a.41.41,0,0,1-.16.34.67.67,0,0,1-.43.12h-.1a.81.81,0,0,0-.46.12.87.87,0,0,0-.28.39Z" transform="translate(-253.75 -309.82)" fill="#fff"/><path d="M269.75,314.07h.36c.29,0,.43.1.43.31a.39.39,0,0,1-.15.32.67.67,0,0,1-.43.12h-.61a.6.6,0,0,1-.4-.12.39.39,0,0,1-.15-.32,1,1,0,0,1,.1-.36l1.38-3.41,0-.09a.54.54,0,0,1,.51-.39.33.33,0,0,1,.24.1.29.29,0,0,1,.1.23.53.53,0,0,1-.05.23l0,.09Z" transform="translate(-253.75 -309.82)" fill="#fff"/><path d="M271.62,313.81c0,.17.13.26.39.26h1c.29,0,.43.1.43.31a.39.39,0,0,1-.15.32.67.67,0,0,1-.43.12h-1a1.13,1.13,0,0,1-.82-.27,1,1,0,0,1-.29-.78,1.63,1.63,0,0,1,.45-1.15,1.41,1.41,0,0,1,1.07-.48,1,1,0,0,1,.72.24.78.78,0,0,1,.27.62.71.71,0,0,1-.38.68,1.15,1.15,0,0,1-.62.13Zm.17-.62h.38c.24,0,.36-.06.35-.16s-.08-.19-.23-.19A.56.56,0,0,0,271.79,313.19Z" transform="translate(-253.75 -309.82)" fill="#fff"/><path d="M254.4,314.77c-.47,0-.55-.26-.55-.41a.5.5,0,0,1,.2-.42.82.82,0,0,1,.5-.14h.39c.37,0,.37-.16.37-.23a.59.59,0,0,0-.08-.25l0-.09a.55.55,0,0,1-.5.35.52.52,0,0,1-.33-.12.4.4,0,0,1-.15-.31.93.93,0,0,1,.11-.37l.46-.93a.59.59,0,0,1,.52-.39.46.46,0,0,1,.3.11.37.37,0,0,1,.13.29.6.6,0,0,1,0,.16s0,.08,0,.11a.69.69,0,0,0,.14.38l.2.27a1.53,1.53,0,0,1,.32.87,1,1,0,0,1-.36.8,1.24,1.24,0,0,1-.88.32Z" transform="translate(-253.75 -309.82)" fill="#09091e"/><path d="M256.82,314.82a.45.45,0,0,1-.31-.12.39.39,0,0,1-.14-.3.73.73,0,0,1,.06-.26l1.53-3.78c.15-.36.37-.54.64-.54a.47.47,0,0,1,.32.12.43.43,0,0,1,.14.31,1.21,1.21,0,0,1-.1.37l-.55,1.34a1,1,0,0,1,.39-.08.9.9,0,0,1,.61.21.68.68,0,0,1,.25.55,1.14,1.14,0,0,1-.09.42l-.3.74h.23c.47,0,.55.26.55.42a.5.5,0,0,1-.2.41.76.76,0,0,1-.5.14h-.69a.67.67,0,0,1-.44-.15.51.51,0,0,1-.19-.39.94.94,0,0,1,.09-.36l.32-.77a.81.81,0,0,0,.05-.19s0-.08-.15-.08-.35.18-.49.53l-.38.94A.69.69,0,0,1,256.82,314.82Z" transform="translate(-253.75 -309.82)" fill="#09091e"/><path d="M262.26,314.77a.52.52,0,0,1-.41-.16.65.65,0,0,1-.45.16h-.5a.79.79,0,0,1-.58-.22.73.73,0,0,1-.23-.55,1.23,1.23,0,0,1,.09-.43l.47-1.15c.15-.36.36-.54.64-.54a.48.48,0,0,1,.33.12.43.43,0,0,1,.14.31.77.77,0,0,1-.07.28l-.4,1,0,.1a.21.21,0,0,0,0,.1h.12c.25,0,.37-.09.43-.25l.43-1.06c.15-.36.36-.55.65-.55a.48.48,0,0,1,.32.13.43.43,0,0,1,.14.31,1,1,0,0,1-.1.37l-.44,1.07H263a.72.72,0,0,1,.4.09.39.39,0,0,1,.14.33.49.49,0,0,1-.19.41.76.76,0,0,1-.5.14Z" transform="translate(-253.75 -309.82)" fill="#09091e"/><path d="M263.22,317.17a.49.49,0,0,1-.33-.13.41.41,0,0,1-.14-.31,1.07,1.07,0,0,1,.1-.37l1.41-3.47h-.07c-.48,0-.55-.25-.55-.41a.5.5,0,0,1,.2-.41.75.75,0,0,1,.49-.15h.32l.41-1a1.84,1.84,0,0,1,.56-.81,1.53,1.53,0,0,1,.89-.25h.39c.48,0,.55.26.55.42a.5.5,0,0,1-.19.42.78.78,0,0,1-.5.15h-.11a.75.75,0,0,0-.39.09.82.82,0,0,0-.24.35l-.26.63h.31c.48,0,.55.27.55.42a.5.5,0,0,1-.2.42.81.81,0,0,1-.49.13h-.56l-1.51,3.74C263.71,317,263.5,317.17,263.22,317.17Z" transform="translate(-253.75 -309.82)" fill="#09091e"/><path d="M266,317.17a.49.49,0,0,1-.33-.13.41.41,0,0,1-.14-.31,1.07,1.07,0,0,1,.1-.37l1.41-3.47h-.07c-.48,0-.55-.25-.55-.41a.5.5,0,0,1,.2-.41.74.74,0,0,1,.49-.15h.32l.41-1a1.84,1.84,0,0,1,.56-.81,1.51,1.51,0,0,1,.89-.25h.39c.48,0,.55.26.55.42a.5.5,0,0,1-.2.42.75.75,0,0,1-.49.15h-.11a.7.7,0,0,0-.39.09.82.82,0,0,0-.24.35l-.26.63h.31c.48,0,.55.27.55.42a.5.5,0,0,1-.2.42.81.81,0,0,1-.49.13h-.56l-1.51,3.74C266.45,317,266.23,317.17,266,317.17Z" transform="translate(-253.75 -309.82)" fill="#09091e"/><path d="M269.45,314.77a.77.77,0,0,1-.47-.14.49.49,0,0,1-.19-.41,1.09,1.09,0,0,1,.11-.4l1.42-3.5a.65.65,0,0,1,.61-.46.48.48,0,0,1,.32.13.43.43,0,0,1,.14.31.74.74,0,0,1-.06.28L270,313.8h.19c.48,0,.55.26.55.42a.5.5,0,0,1-.2.41.73.73,0,0,1-.49.14Z" transform="translate(-253.75 -309.82)" fill="#09091e"/><path d="M272,314.77a1.31,1.31,0,0,1-.9-.29,1.17,1.17,0,0,1-.31-.87,1.76,1.76,0,0,1,.47-1.22,1.53,1.53,0,0,1,1.15-.51,1.17,1.17,0,0,1,.8.26.9.9,0,0,1,.31.7.85.85,0,0,1-.43.78,1.31,1.31,0,0,1-.69.15h-.51a.51.51,0,0,0,.21,0h1c.48,0,.55.26.55.42a.5.5,0,0,1-.2.41.75.75,0,0,1-.49.14Zm.26-1.85c.21,0,.25,0,.25,0s0-.08-.13-.08a.38.38,0,0,0-.28.12Z" transform="translate(-253.75 -309.82)" fill="#09091e"/><path d="M254.35,314.85c-.48,0-.55-.26-.55-.41a.5.5,0,0,1,.2-.42.81.81,0,0,1,.49-.14h.4c.37,0,.37-.16.37-.24a.56.56,0,0,0-.08-.24l0-.09a.56.56,0,0,1-.51.35.44.44,0,0,1-.32-.13.38.38,0,0,1-.15-.3.93.93,0,0,1,.11-.37l.46-.93a.58.58,0,0,1,.52-.39.41.41,0,0,1,.3.11.37.37,0,0,1,.13.29.6.6,0,0,1,0,.16.45.45,0,0,0,0,.11.69.69,0,0,0,.14.38l.19.27a1.44,1.44,0,0,1,.32.87,1,1,0,0,1-.36.8,1.26,1.26,0,0,1-.87.32Z" transform="translate(-253.75 -309.82)" fill="#09091e"/><path d="M256.77,314.9a.43.43,0,0,1-.31-.12.39.39,0,0,1-.14-.3.74.74,0,0,1,.06-.27l1.53-3.77c.15-.36.36-.55.64-.55a.48.48,0,0,1,.32.13.4.4,0,0,1,.13.31,1.14,1.14,0,0,1-.09.37l-.55,1.34a1,1,0,0,1,.39-.09.91.91,0,0,1,.61.22.7.7,0,0,1,.25.55,1.09,1.09,0,0,1-.09.41l-.3.75h.23c.47,0,.54.26.54.42a.49.49,0,0,1-.19.41.82.82,0,0,1-.5.14h-.69a.67.67,0,0,1-.44-.15.52.52,0,0,1-.19-.39.94.94,0,0,1,.09-.36l.31-.78a.41.41,0,0,0,.05-.18s0-.08-.14-.08-.35.18-.49.53l-.39.94A.7.7,0,0,1,256.77,314.9Z" transform="translate(-253.75 -309.82)" fill="#09091e"/><path d="M262.21,314.85a.52.52,0,0,1-.41-.16.67.67,0,0,1-.45.16h-.5a.79.79,0,0,1-.58-.22.72.72,0,0,1-.23-.56,1.22,1.22,0,0,1,.09-.42l.47-1.15c.15-.36.36-.55.64-.55a.44.44,0,0,1,.32.13.38.38,0,0,1,.14.31.74.74,0,0,1-.06.28l-.4,1,0,.1a.27.27,0,0,0,0,.11h.12a.41.41,0,0,0,.43-.25l.43-1.06c.14-.36.36-.55.64-.55a.44.44,0,0,1,.33.13.41.41,0,0,1,.14.31,1.29,1.29,0,0,1-.1.37l-.44,1.07H263a.72.72,0,0,1,.4.09.39.39,0,0,1,.14.32.5.5,0,0,1-.19.42.82.82,0,0,1-.5.14Z" transform="translate(-253.75 -309.82)" fill="#09091e"/><path d="M263.17,317.24a.48.48,0,0,1-.33-.12.41.41,0,0,1-.14-.31,1.07,1.07,0,0,1,.1-.37l1.41-3.47h-.07c-.48,0-.55-.25-.55-.41a.5.5,0,0,1,.2-.42.79.79,0,0,1,.49-.14h.32l.41-1a1.78,1.78,0,0,1,.56-.81,1.51,1.51,0,0,1,.89-.25h.39c.48,0,.55.26.55.42a.5.5,0,0,1-.2.42.75.75,0,0,1-.49.14h-.11a.7.7,0,0,0-.39.1.76.76,0,0,0-.24.35l-.26.63H266c.48,0,.55.26.55.42a.5.5,0,0,1-.2.41.75.75,0,0,1-.49.14h-.56l-1.51,3.73C263.66,317.06,263.44,317.24,263.17,317.24Z" transform="translate(-253.75 -309.82)" fill="#09091e"/><path d="M265.91,317.24a.48.48,0,0,1-.33-.12.41.41,0,0,1-.14-.31,1.26,1.26,0,0,1,.09-.37L267,313h-.07c-.48,0-.55-.25-.55-.41a.5.5,0,0,1,.2-.42A.79.79,0,0,1,267,312h.32l.4-1a1.87,1.87,0,0,1,.57-.81,1.49,1.49,0,0,1,.89-.25h.39c.48,0,.55.26.55.42a.5.5,0,0,1-.2.42.76.76,0,0,1-.5.14h-.1a.7.7,0,0,0-.39.1.76.76,0,0,0-.24.35l-.26.63h.31c.47,0,.54.26.54.42a.49.49,0,0,1-.19.41.76.76,0,0,1-.5.14h-.55l-1.52,3.73C266.4,317.06,266.18,317.24,265.91,317.24Z" transform="translate(-253.75 -309.82)" fill="#09091e"/><path d="M269.4,314.85a.75.75,0,0,1-.47-.14.5.5,0,0,1-.19-.41,1,1,0,0,1,.11-.4l1.42-3.5a.64.64,0,0,1,.61-.46.44.44,0,0,1,.32.13.41.41,0,0,1,.14.31.7.7,0,0,1-.06.27L270,313.88h.19c.48,0,.55.26.55.42a.5.5,0,0,1-.2.41.81.81,0,0,1-.49.14Z" transform="translate(-253.75 -309.82)" fill="#09091e"/><path d="M272,314.85a1.25,1.25,0,0,1-.9-.3,1.14,1.14,0,0,1-.32-.86,1.72,1.72,0,0,1,.48-1.22,1.54,1.54,0,0,1,1.15-.52,1.15,1.15,0,0,1,.79.27.86.86,0,0,1,.32.7.85.85,0,0,1-.44.78,1.25,1.25,0,0,1-.68.14h-.51a.37.37,0,0,0,.21,0h1c.48,0,.55.26.55.42a.5.5,0,0,1-.2.41.82.82,0,0,1-.5.14Zm.26-1.85c.21,0,.24-.05.25-.05s0-.07-.13-.07a.4.4,0,0,0-.29.12Z" transform="translate(-253.75 -309.82)" fill="#09091e"/><path d="M254.3,314.93c-.48,0-.55-.26-.55-.41a.5.5,0,0,1,.2-.42.81.81,0,0,1,.49-.14h.4c.37,0,.37-.17.37-.24a.56.56,0,0,0-.08-.24l0-.09a.56.56,0,0,1-.51.35.44.44,0,0,1-.32-.13.4.4,0,0,1-.15-.31.82.82,0,0,1,.11-.37l.46-.92c.13-.26.3-.4.51-.4a.45.45,0,0,1,.31.12.41.41,0,0,1,.13.29s0,.08,0,.15a.53.53,0,0,0,0,.12.64.64,0,0,0,.14.38l.19.27a1.42,1.42,0,0,1,.32.86,1,1,0,0,1-.36.81,1.26,1.26,0,0,1-.87.32Z" transform="translate(-253.75 -309.82)" fill="#09091e"/><path d="M256.72,315a.43.43,0,0,1-.31-.12.39.39,0,0,1-.14-.3.74.74,0,0,1,.06-.27l1.53-3.77c.15-.36.36-.55.64-.55a.44.44,0,0,1,.32.13.4.4,0,0,1,.13.31.89.89,0,0,1-.1.36l-.54,1.35a1,1,0,0,1,.38-.09.91.91,0,0,1,.62.21.73.73,0,0,1,.25.56,1.13,1.13,0,0,1-.09.41l-.3.75h.23c.47,0,.54.26.54.42a.47.47,0,0,1-.2.41.79.79,0,0,1-.49.14h-.69a.67.67,0,0,1-.44-.15.5.5,0,0,1-.19-.4A1,1,0,0,1,258,314l.31-.78a.41.41,0,0,0,.05-.18s0-.08-.15-.08-.34.17-.48.52l-.39.95A.7.7,0,0,1,256.72,315Z" transform="translate(-253.75 -309.82)" fill="#09091e"/><path d="M262.16,314.93a.51.51,0,0,1-.41-.16.67.67,0,0,1-.45.16h-.5a.83.83,0,0,1-.58-.22.73.73,0,0,1-.24-.56,1.31,1.31,0,0,1,.1-.43l.47-1.14c.15-.36.36-.55.64-.55a.44.44,0,0,1,.32.13.41.41,0,0,1,.14.31.79.79,0,0,1-.06.28l-.4,1,0,.1a.39.39,0,0,0,0,.11h.12a.41.41,0,0,0,.43-.25l.43-1.06c.14-.36.36-.55.64-.55a.44.44,0,0,1,.33.13.4.4,0,0,1,.13.31,1.26,1.26,0,0,1-.09.37l-.44,1.07h.23a.67.67,0,0,1,.4.09.36.36,0,0,1,.15.32.5.5,0,0,1-.2.42.79.79,0,0,1-.49.14Z" transform="translate(-253.75 -309.82)" fill="#09091e"/><path d="M263.12,317.32a.48.48,0,0,1-.33-.12.41.41,0,0,1-.14-.31,1.26,1.26,0,0,1,.09-.37l1.42-3.47h-.07c-.48,0-.55-.26-.55-.41a.5.5,0,0,1,.2-.42.79.79,0,0,1,.49-.14h.32l.4-1a1.87,1.87,0,0,1,.57-.81,1.42,1.42,0,0,1,.89-.25h.39c.48,0,.55.26.55.41a.52.52,0,0,1-.2.43.82.82,0,0,1-.5.14h-.1a.63.63,0,0,0-.39.1.78.78,0,0,0-.24.34l-.26.64H266c.47,0,.54.26.54.42a.49.49,0,0,1-.19.41.82.82,0,0,1-.5.14h-.55l-1.52,3.73C263.61,317.14,263.39,317.32,263.12,317.32Z" transform="translate(-253.75 -309.82)" fill="#09091e"/><path d="M265.85,317.32a.45.45,0,0,1-.32-.12.39.39,0,0,1-.15-.31,1.37,1.37,0,0,1,.1-.37l1.41-3.47h-.06c-.48,0-.55-.26-.55-.41a.5.5,0,0,1,.19-.42.82.82,0,0,1,.5-.14h.32l.4-1a1.87,1.87,0,0,1,.57-.81,1.42,1.42,0,0,1,.89-.25h.39c.48,0,.55.26.55.41a.52.52,0,0,1-.2.43.82.82,0,0,1-.5.14h-.1a.63.63,0,0,0-.39.1.78.78,0,0,0-.24.34l-.26.64h.31c.47,0,.54.26.54.42a.49.49,0,0,1-.19.41.82.82,0,0,1-.5.14H268l-1.51,3.73C266.35,317.14,266.13,317.32,265.85,317.32Z" transform="translate(-253.75 -309.82)" fill="#09091e"/><path d="M269.35,314.93a.68.68,0,0,1-.47-.15.48.48,0,0,1-.19-.4,1.19,1.19,0,0,1,.1-.4l1.43-3.51a.63.63,0,0,1,.61-.45.44.44,0,0,1,.32.13.4.4,0,0,1,.13.31,1,1,0,0,1,0,.27L269.91,314h.2c.47,0,.55.26.55.42a.5.5,0,0,1-.2.41.82.82,0,0,1-.5.14Z" transform="translate(-253.75 -309.82)" fill="#09091e"/><path d="M271.91,314.93a1.25,1.25,0,0,1-.9-.3,1.14,1.14,0,0,1-.32-.86,1.72,1.72,0,0,1,.48-1.22,1.53,1.53,0,0,1,1.15-.52,1.19,1.19,0,0,1,.79.26.89.89,0,0,1,.31.71.84.84,0,0,1-.43.78,1.28,1.28,0,0,1-.68.14h-.51a.45.45,0,0,0,.21,0h1c.47,0,.54.26.54.42a.49.49,0,0,1-.19.41.82.82,0,0,1-.5.14Zm.26-1.85c.2,0,.24-.05.24-.05s0-.07-.12-.07a.36.36,0,0,0-.29.12Z" transform="translate(-253.75 -309.82)" fill="#09091e"/><path d="M255.08,313.13l-.07.16a.48.48,0,0,1-.43.34.42.42,0,0,1-.25-.1.31.31,0,0,1-.11-.23.75.75,0,0,1,.1-.32l.46-.92c.11-.22.25-.34.41-.34a.32.32,0,0,1,.23.09.26.26,0,0,1,.1.21s0,.06,0,.13a.71.71,0,0,0,0,.14.75.75,0,0,0,.16.44l.19.27a1.4,1.4,0,0,1,.3.8,1,1,0,0,1-.32.73,1.17,1.17,0,0,1-.8.29h-.72c-.29,0-.44-.1-.44-.3a.38.38,0,0,1,.16-.33.66.66,0,0,1,.42-.12h.4c.32,0,.48-.12.48-.35a.71.71,0,0,0-.09-.3Z" transform="translate(-253.75 -309.82)" fill="#5ff9f5"/><path d="M258.1,312.34a1.36,1.36,0,0,1,.59-.2.76.76,0,0,1,.54.19.57.57,0,0,1,.22.47,1,1,0,0,1-.09.37l-.36.9h.4c.29,0,.43.1.43.31a.39.39,0,0,1-.15.32.69.69,0,0,1-.43.12h-.69a.52.52,0,0,1-.37-.13.37.37,0,0,1-.15-.31.94.94,0,0,1,.08-.31l.32-.78a.55.55,0,0,0,.05-.22c0-.13-.08-.2-.26-.2s-.43.2-.59.6l-.38.95q-.18.45-.54.45a.36.36,0,0,1-.24-.09.28.28,0,0,1-.1-.22.8.8,0,0,1,.05-.23l0-.09,1.49-3.68q.19-.48.54-.48a.37.37,0,0,1,.24.1.29.29,0,0,1,.1.23.92.92,0,0,1-.09.32Z" transform="translate(-253.75 -309.82)" fill="#5ff9f5"/><path d="M262.52,314.07h.39a.59.59,0,0,1,.34.07.25.25,0,0,1,.1.23.4.4,0,0,1-.15.33.71.71,0,0,1-.43.12h-.61a.38.38,0,0,1-.39-.23.6.6,0,0,1-.47.23h-.5a.75.75,0,0,1-.51-.19.66.66,0,0,1-.2-.48,1.22,1.22,0,0,1,.09-.38l.47-1.15q.19-.48.54-.48a.33.33,0,0,1,.25.1.29.29,0,0,1,.1.23.79.79,0,0,1-.05.24l0,.09-.36.88,0,.1c0,.06,0,.11,0,.14s.07.15.2.15a.54.54,0,0,0,.57-.34l.43-1.06q.19-.48.54-.48a.33.33,0,0,1,.25.1.29.29,0,0,1,.1.23,1,1,0,0,1-.09.33Z" transform="translate(-253.75 -309.82)" fill="#5ff9f5"/><path d="M265.49,312.19H266c.29,0,.43.1.43.31a.37.37,0,0,1-.15.32.67.67,0,0,1-.43.12h-.63l-1.54,3.8c-.13.31-.31.47-.53.47a.37.37,0,0,1-.26-.09.29.29,0,0,1-.1-.23,1,1,0,0,1,.09-.33l1.47-3.62h-.23c-.29,0-.44-.1-.44-.3a.4.4,0,0,1,.15-.33.71.71,0,0,1,.43-.12h.39l.44-1.07a1.69,1.69,0,0,1,.52-.76,1.38,1.38,0,0,1,.83-.23h.39c.29,0,.44.1.44.3a.39.39,0,0,1-.16.34.67.67,0,0,1-.43.12h-.1a.75.75,0,0,0-.45.12.81.81,0,0,0-.28.39Z" transform="translate(-253.75 -309.82)" fill="#5ff9f5"/><path d="M268.23,312.19h.48c.29,0,.43.1.43.31a.37.37,0,0,1-.15.32.67.67,0,0,1-.43.12h-.63l-1.54,3.8c-.13.31-.31.47-.54.47a.37.37,0,0,1-.25-.09.29.29,0,0,1-.1-.23,1,1,0,0,1,.09-.33l1.47-3.62h-.23c-.3,0-.44-.1-.44-.3a.4.4,0,0,1,.15-.33.69.69,0,0,1,.43-.12h.39l.44-1.07a1.69,1.69,0,0,1,.52-.76,1.38,1.38,0,0,1,.83-.23h.39c.29,0,.44.1.44.3a.41.41,0,0,1-.16.34.67.67,0,0,1-.43.12h-.1a.81.81,0,0,0-.46.12.87.87,0,0,0-.28.39Z" transform="translate(-253.75 -309.82)" fill="#5ff9f5"/><path d="M269.75,314.07h.36c.29,0,.43.1.43.31a.39.39,0,0,1-.15.32.67.67,0,0,1-.43.12h-.61a.6.6,0,0,1-.4-.12.39.39,0,0,1-.15-.32,1,1,0,0,1,.1-.36l1.38-3.41,0-.09a.54.54,0,0,1,.51-.39.33.33,0,0,1,.24.1.29.29,0,0,1,.1.23.53.53,0,0,1-.05.23l0,.09Z" transform="translate(-253.75 -309.82)" fill="#5ff9f5"/><path d="M271.62,313.81c0,.17.13.26.39.26h1c.29,0,.43.1.43.31a.39.39,0,0,1-.15.32.67.67,0,0,1-.43.12h-1a1.13,1.13,0,0,1-.82-.27,1,1,0,0,1-.29-.78,1.63,1.63,0,0,1,.45-1.15,1.41,1.41,0,0,1,1.07-.48,1,1,0,0,1,.72.24.78.78,0,0,1,.27.62.71.71,0,0,1-.38.68,1.15,1.15,0,0,1-.62.13Zm.17-.62h.38c.24,0,.36-.06.35-.16s-.08-.19-.23-.19A.56.56,0,0,0,271.79,313.19Z" transform="translate(-253.75 -309.82)" fill="#5ff9f5"/><g opacity="0.5" style="mix-blend-mode:overlay"><path d="M255.08,313.13l-.07.16a.48.48,0,0,1-.43.34.42.42,0,0,1-.25-.1.31.31,0,0,1-.11-.23.75.75,0,0,1,.1-.32l.46-.92c.11-.22.25-.34.41-.34a.32.32,0,0,1,.23.09.26.26,0,0,1,.1.21s0,.06,0,.13a.71.71,0,0,0,0,.14.75.75,0,0,0,.16.44l.19.27a1.4,1.4,0,0,1,.3.8,1,1,0,0,1-.32.73,1.17,1.17,0,0,1-.8.29h-.72c-.29,0-.44-.1-.44-.3a.38.38,0,0,1,.16-.33.66.66,0,0,1,.42-.12h.4c.32,0,.48-.12.48-.35a.71.71,0,0,0-.09-.3Z" transform="translate(-253.75 -309.82)" fill="url(#ffe2669c-f9f9-4175-828a-3054fbc9bddb)"/><path d="M258.1,312.34a1.36,1.36,0,0,1,.59-.2.76.76,0,0,1,.54.19.57.57,0,0,1,.22.47,1,1,0,0,1-.09.37l-.36.9h.4c.29,0,.43.1.43.31a.39.39,0,0,1-.15.32.69.69,0,0,1-.43.12h-.69a.52.52,0,0,1-.37-.13.37.37,0,0,1-.15-.31.94.94,0,0,1,.08-.31l.32-.78a.55.55,0,0,0,.05-.22c0-.13-.08-.2-.26-.2s-.43.2-.59.6l-.38.95q-.18.45-.54.45a.36.36,0,0,1-.24-.09.28.28,0,0,1-.1-.22.8.8,0,0,1,.05-.23l0-.09,1.49-3.68q.19-.48.54-.48a.37.37,0,0,1,.24.1.29.29,0,0,1,.1.23.92.92,0,0,1-.09.32Z" transform="translate(-253.75 -309.82)" fill="url(#ffe2669c-f9f9-4175-828a-3054fbc9bddb)"/><path d="M262.52,314.07h.39a.59.59,0,0,1,.34.07.25.25,0,0,1,.1.23.4.4,0,0,1-.15.33.71.71,0,0,1-.43.12h-.61a.38.38,0,0,1-.39-.23.6.6,0,0,1-.47.23h-.5a.75.75,0,0,1-.51-.19.66.66,0,0,1-.2-.48,1.22,1.22,0,0,1,.09-.38l.47-1.15q.19-.48.54-.48a.33.33,0,0,1,.25.1.29.29,0,0,1,.1.23.79.79,0,0,1-.05.24l0,.09-.36.88,0,.1c0,.06,0,.11,0,.14s.07.15.2.15a.54.54,0,0,0,.57-.34l.43-1.06q.19-.48.54-.48a.33.33,0,0,1,.25.1.29.29,0,0,1,.1.23,1,1,0,0,1-.09.33Z" transform="translate(-253.75 -309.82)" fill="url(#ffe2669c-f9f9-4175-828a-3054fbc9bddb)"/><path d="M265.49,312.19H266c.29,0,.43.1.43.31a.37.37,0,0,1-.15.32.67.67,0,0,1-.43.12h-.63l-1.54,3.8c-.13.31-.31.47-.53.47a.37.37,0,0,1-.26-.09.29.29,0,0,1-.1-.23,1,1,0,0,1,.09-.33l1.47-3.62h-.23c-.29,0-.44-.1-.44-.3a.4.4,0,0,1,.15-.33.71.71,0,0,1,.43-.12h.39l.44-1.07a1.69,1.69,0,0,1,.52-.76,1.38,1.38,0,0,1,.83-.23h.39c.29,0,.44.1.44.3a.39.39,0,0,1-.16.34.67.67,0,0,1-.43.12h-.1a.75.75,0,0,0-.45.12.81.81,0,0,0-.28.39Z" transform="translate(-253.75 -309.82)" fill="url(#ffe2669c-f9f9-4175-828a-3054fbc9bddb)"/><path d="M268.23,312.19h.48c.29,0,.43.1.43.31a.37.37,0,0,1-.15.32.67.67,0,0,1-.43.12h-.63l-1.54,3.8c-.13.31-.31.47-.54.47a.37.37,0,0,1-.25-.09.29.29,0,0,1-.1-.23,1,1,0,0,1,.09-.33l1.47-3.62h-.23c-.3,0-.44-.1-.44-.3a.4.4,0,0,1,.15-.33.69.69,0,0,1,.43-.12h.39l.44-1.07a1.69,1.69,0,0,1,.52-.76,1.38,1.38,0,0,1,.83-.23h.39c.29,0,.44.1.44.3a.41.41,0,0,1-.16.34.67.67,0,0,1-.43.12h-.1a.81.81,0,0,0-.46.12.87.87,0,0,0-.28.39Z" transform="translate(-253.75 -309.82)" fill="url(#ffe2669c-f9f9-4175-828a-3054fbc9bddb)"/><path d="M269.75,314.07h.36c.29,0,.43.1.43.31a.39.39,0,0,1-.15.32.67.67,0,0,1-.43.12h-.61a.6.6,0,0,1-.4-.12.39.39,0,0,1-.15-.32,1,1,0,0,1,.1-.36l1.38-3.41,0-.09a.54.54,0,0,1,.51-.39.33.33,0,0,1,.24.1.29.29,0,0,1,.1.23.53.53,0,0,1-.05.23l0,.09Z" transform="translate(-253.75 -309.82)" fill="url(#ffe2669c-f9f9-4175-828a-3054fbc9bddb)"/><path d="M271.62,313.81c0,.17.13.26.39.26h1c.29,0,.43.1.43.31a.39.39,0,0,1-.15.32.67.67,0,0,1-.43.12h-1a1.13,1.13,0,0,1-.82-.27,1,1,0,0,1-.29-.78,1.63,1.63,0,0,1,.45-1.15,1.41,1.41,0,0,1,1.07-.48,1,1,0,0,1,.72.24.78.78,0,0,1,.27.62.71.71,0,0,1-.38.68,1.15,1.15,0,0,1-.62.13Zm.17-.62h.38c.24,0,.36-.06.35-.16s-.08-.19-.23-.19A.56.56,0,0,0,271.79,313.19Z" transform="translate(-253.75 -309.82)" fill="url(#ffe2669c-f9f9-4175-828a-3054fbc9bddb)"/></g></g></g></svg>